<svg xmlns="http://www.w3.org/2000/svg" viewBox="286.25 123.582 875 898.78" width="100%" height="100%" xmlns:v="https://vecta.io/nano"><path d="M393.722 207.743l3.509-.011 9.617-.001 10.473-.012 18.347-.011 27.283-.016 51.564-.026 39.82-.011 11.463-.005 2.878-.001 80.154-.019h3.052 15.316 3.073 6.151l95.709-.041 107.531-.046h11.467 2.852l45.429-.03 45.658-.006 27.12-.016 18.126.005 10.32-.007 11.14.013 3.204-.03c13.188.125 27.578 4.854 37.494 13.879 10.407 11.232 16.701 23.662 16.65 39.043l.003 2.604-.006 8.692.003 6.257-.007 17.273-.002 18.883-.008 32.514-.011 46.591-.032 112.042L1109 758H337c-.91-4.549-1.141-8.667-1.129-13.263l-.005-2.523v-8.406l-.007-6.073-.005-16.72-.01-18.021-.012-35.322-.006-28.714-.003-8.264-.001-2.075-.01-57.802v-2.202-11.048-2.216-4.437l-.021-69.001-.023-77.527v-8.272-2.057l-.015-32.743-.003-32.93-.005-17.831.002-16.337-.006-5.897c-.054-20.463 1.394-38.269 15.755-54.067L354 222l1.441-1.418c10.947-10.261 23.807-12.895 38.281-12.839zm565.579 75.175C950.775 294.338 947.709 305.907 949 320c1.697 7.977 4.182 14.242 10.953 19.133 15.116 9.134 28.266 12.653 46.047 8.867 19.586-4.932 39.341-16.263 50-34 4.757-9.737 7.743-20.076 4.848-30.812-3.674-9.48-10.927-16.459-19.91-20.937-28.991-12.183-61.368-2.446-81.637 20.668zm-191.452 44.119l-6.029 1.404c-20.09 4.671-39.63 9.9-58.819 17.559l-4.098 1.606L671 359l-2.835 1.191c-10.885 4.601-21.352 9.865-31.739 15.497l-7.296 3.902c-21.414 11.472-41.299 24.719-60.074 40.109-3.706 3.03-7.464 5.986-11.242 8.926-31.416 24.607-61.822 56.352-67.531 97.691C488.516 543.162 493.47 560.675 504 574c15.064 17.718 39.829 25.189 62.25 27.625 30.576 2.325 61.068-5.611 89.75-15.625l2.586-.897c10.734-3.774 21.084-8.203 31.352-13.103l3.011-1.436c13.515-6.582 26.049-14.364 38.489-22.751l3.967-2.654 3.842-2.576 1.746-1.171c4.054-2.734 8.076-5.503 12.008-8.411v-1c-12.807-1.314-12.807-1.314-25.02 1.43a88.7 88.7 0 0 0-4.309 4.145c-3.66 3.322-7.727 5.373-12.109 7.613l-2.548 1.303L702 550l-2.934 1.5C671.782 564.771 639.942 570.743 610 574l-2.75.308c-18.289 1.958-37.258 1.652-52.527-10.054-10.849-10.016-15.525-22.984-16.123-37.46-.409-24.043 12.4-45.113 27.896-62.607 2.668-2.689 2.668-2.689 3.505-6.187h2c1.569-1.551 1.569-1.551 3.188-3.562 5.621-6.754 11.801-12.473 18.813-17.75l2.253-1.703c24.319-18.224 50.681-31.894 78.997-42.735l2.174-.832c27.283-10.406 27.283-10.406 38.639-12.418l2.553-.462L728 377l2.02-.32c36.772-5.778 76.985-11.203 109.98 10.32 12.227 9.175 20.103 22.178 22.68 37.266 3.314 28.287-10.331 57.021-27.352 78.922-3.231 3.903-6.607 7.651-10.062 11.355-1.824 1.979-3.524 3.983-5.203 6.082-3.308 3.916-7.303 6.959-11.301 10.141-2.349 1.9-4.556 3.861-6.762 5.922-21.113 18.875-46.473 33.424-71 47.313l-2.041 1.173C707.622 597.404 684.096 606.708 661 615l-1.894.682c-19.84 7.131-39.945 13.128-60.294 18.63l-3.249.893-9.232 2.47-2.761.762c-10.691 2.743-20.022-.073-30.598-2.492l-4.069-.916-14.987-3.392-26.454-5.886-6.469-1.43c-10.057-2.61-10.057-2.61-19.887-.587-1.341.957-2.647 1.966-3.918 3.016l-4.766 3.398-2.588 1.882c-5.43 3.774-11.181 7.028-16.896 10.345l-3.704 2.169c-9.637 5.626-19.415 10.965-29.287 16.166l-3.084 1.629-2.71 1.418c-2.269 1.185-2.269 1.185-4.154 3.242 27.525 9.334 50.509 12.871 79.52 9.535l2.129-.24c1.459-.183 2.915-.397 4.362-.66 6.577-1.069 11.894.24 18.231 2.049l3.238.88 6.847 1.887 18.029 4.897 3.602.973c37.537 10.106 75.951 17.915 114.586 22.274l10.015 1.308c23.567 3.207 47.507 4.087 70.801-1.304 2.778-.63 5.564-1.186 8.359-1.731C772.295 702.379 793.003 694.316 814 685l2.666-1.18c24.445-10.931 47.27-25.29 69.209-40.57l2.2-1.52c1.68-1.19 3.309-2.453 4.925-3.73v-2c-16.023-1.655-16.023-1.655-30.062 5-1.789 1.5-3.548 3.024-5.288 4.581-32.311 27.788-82.63 32.896-123.177 29.923-7.847-.661-15.658-1.53-23.473-2.504l-3.412-.423c-25.309-3.323-50.088-9.927-74.856-15.947l-13.96-3.341-3.515-.833-6.663-1.568-2.983-.708-2.634-.619C601 649 601 649 600 648l3.54-1.063c37.564-11.294 74.97-22.736 111.647-36.687l3.095-1.176c19.853-7.571 39.612-15.459 58.842-24.511l3.536-1.656c32.281-15.192 64.337-31.927 92.742-53.69l4.714-3.505C889.303 517.489 899.824 508.438 910 499l2.16-1.961c20.868-19.77 37.96-48.268 43.09-76.539l.532-2.915c3.102-18.406.257-37.786-9.775-53.757-1.923-2.685-3.924-5.267-6.008-7.828l-2.312-3.125c-24.955-26.696-61.559-33.508-96.488-34.711l-2.733-.085-6.072-.243c-21.763-.595-43.497 4.258-64.546 9.201zM339.156 774.875h2.919l3.36-.007 3.745.008 3.953-.003 10.962.004 11.889-.001 20.869.004 31.032.005 52.192.008 51.702.011h3.243l16.304.001 115.583.018 112.312.021h3.495l34.744.004 70.782.008h3.288L1109 775l.155 56.538.071 26.254.056 22.894.035 12.112.022 11.423.018 4.171c.128 16.177-3.963 30.67-15.358 42.608-9.305 8.349-21.052 15.118-33.868 15.129l-2.988.01-3.282-.004-3.502.007-9.667.006-10.501.011-20.847.016-24.963.02-60.344.04-28.544.015-97.697.04-6.135.001-3.073.001-15.414.004-3.09.001-99.173.064-104.834.057-11.509.001h-2.862l-45.606.038-45.845.016a9156.02 9156.02 0 0 0-27.233.023 4192.64 4192.64 0 0 1-18.202 0c-3.455-.007-6.909-.008-10.364.01a1390.55 1390.55 0 0 1-11.187-.01l-3.218.031c-14.008-.128-26.949-5.288-37.334-14.717-19.153-20.154-17.031-45.522-16.954-71.457l.007-11.029.023-18.449.02-21.337.015-22.794.003-6.556.022-12.15-.001-3.672.013-3.316.005-2.898c.174-2.911.372-3.106 3.284-3.275zM851 835c-2.388 3.182-4.25 6.433-6 10l-1.211 2.281c-2.753 5.546-3.568 10.571-3.789 16.719l-.191 2.996c-.543 14.306 3.393 27.295 13 38.023 9.84 9.39 20.783 12.389 34.038 12.104 12.462-.712 21.907-4.949 30.154-14.123l-2.312-3.437-1.301-1.934c-1.39-1.917-1.39-1.917-4.387-2.629l-5.004 3.652c-7.486 5.054-16.241 5.242-24.996 4.348-5.953-1.486-12.124-4.07-16-9-6.987-11.984-9.077-23.969-6.246-37.641 3.333-10.405 7.693-15.25 17.246-20.359 6.08-3.04 15.092-2.62 21.5-.812 2.929 1.031 5.306 2.241 7.813 4.063 2.513 1.945 2.513 1.945 5.25 1.938 3.663-1.785 5.346-4.779 7.438-8.187-5.242-6.365-12.915-10.078-20.875-11.875A116.48 116.48 0 0 0 891 821l-3.074-.219c-14.464-.648-26.885 3.514-36.926 14.219zm-411-13v94h15v-42c8.654 0 8.654 0 12 2 2.304 2.349 4.302 4.9 6.313 7.5l1.737 2.194 3.411 4.338 5.852 7.343 5.773 7.312 2.102 2.688 1.855 2.398c3.414 3.884 5.422 6.067 10.727 6.617a133.92 133.92 0 0 0 4.043-.141l2.1-.055L516 916c-3.623-5.831-7.674-11.114-12.115-16.347-3.708-4.388-7.159-8.937-10.581-13.552l-7.68-10.164-1.264-1.662c-1.985-2.588-3.973-5.049-6.361-7.276 1.652-3.917 4.304-6.891 7.063-10.062l3.004-3.504 1.508-1.758c2.011-2.363 3.969-4.767 5.925-7.175l7.434-8.934 1.512-1.766 2.926-3.387c2.29-2.669 4.257-5.16 5.629-8.414l-6.687-.187-3.762-.105c-4.786.395-7.191 1.807-10.402 5.316l-1.773 2.352a318.78 318.78 0 0 1-9.812 12.063l-12.785 15.418c-4.441 5.358-3.878 4.156-12.777 5.145v-40h-15zm87 0v94h53v-13h-38v-81h-15zm67 0v93c3.726.745 6.528 1.126 10.233 1.129l3.083.01 3.293-.006 3.402.003 7.101-.005 10.916.006 6.895-.004 3.317.006 3.045-.01 2.693-.002c2.019.097 2.019.097 3.023-1.127v-11l-42-1v-28l34-1v-11l-34-1-1-28h43v-12h-57zm93 0v12l29 1v81h15v-82h29v-12h-73zm86 0v93c3.721.744 6.518 1.126 10.218 1.129l3.073.01 3.283-.006 3.394.003 7.088-.005 10.883.006 6.885-.004 3.302.006 3.045-.01 2.686-.002c2.195.011 2.195.011 4.143-1.127v-11h-43v-30h34v-11h-34v-29l9.152.035 8.737.02 6.091.021 8.735.022 2.768.016c2.173 0 4.345-.051 6.517-.113 1.252-1.03 1.252-1.03 1.133-3.25l-.008-2.75.008-2.75c.119-2.22.119-2.22-1.133-3.25-1.78-.094-3.564-.117-5.346-.114h-3.506l-3.714.016-3.392.003-12.604.032L773 822zm158 0v94h15v-42h47v42h15l.052-35.439.024-16.455.019-15.873.011-6.063.008-8.476.011-2.546c-.006-3.307-.071-5.988-1.124-9.148h-14v41h-47l.09-26.238.008-4.914.016-2.602c0-2.082-.051-4.165-.113-6.246l-1-1h-14z" fill="#bd353c"/><g fill="#fff"><path d="M1232 226h166v47l-15.824.478c-10.143.249-10.143.249-18.988 4.709-8.397 10.796-5.325 31.265-5.285 44.434l.004 5.518.025 14.366.02 14.723L1358 386l3.356-2.873 1.888-1.616c5.414-4.655 10.675-9.472 15.85-14.389l2.17-2.057 4.291-4.099 2.004-1.903 1.791-1.715C1391 356 1391 356 1394 355v-2c1.293-1.305 1.293-1.305 3.188-2.875 3.702-3.15 7.31-6.385 10.875-9.687l1.663-1.538 14.758-13.757 14.42-13.295 12.573-11.705 8.853-8.116 2.984-2.652 2.613-2.289c3.06-3.078 4.032-4.997 4.199-9.336L1470 275c-5.917-1.218-11.858-1.336-17.875-1.562l-3.242-.131L1441 273c-.805-2.834-1.126-5.351-1.129-8.294l-.01-2.537.006-2.712-.003-2.801.005-5.848-.006-8.987.004-5.678-.006-2.73c.024-6.299.024-6.299 1.139-7.414 1.987-.097 3.977-.122 5.967-.12l3.931-.004 4.353.011h4.552l12.396.013 12.941.008 24.522.021 27.91.022L1595 226v47l-18 1c-11.878 3.354-21.633 11.448-30.543 19.754-2.556 2.336-5.197 4.513-7.895 6.684-4.774 3.861-9.296 7.937-13.812 12.094-3.562 3.198-7.276 6.183-11 9.188-2.831 2.348-5.544 4.79-8.25 7.281-3.578 3.293-7.215 6.447-11 9.5-4.801 3.877-9.374 7.95-13.906 12.137-2.997 2.73-6.089 5.329-9.23 7.891-1.703 1.505-1.703 1.505-1.363 4.473.97 1.672.97 1.672 2.352 3.344l1.558 1.997 1.715 2.159 3.609 4.637 1.893 2.431c2.979 3.869 5.864 7.805 8.748 11.745L1504.5 409l24.926 33.676 20.879 27.817c4.221 5.524 8.312 11.117 12.308 16.805 3.863 5.458 8.102 10.575 12.387 15.702l2.059 2.676c2.538 3.039 5.413 4.673 8.941 6.324l1.82.879c8.335 3.383 15.702 2.595 25.18 3.121v47h-172c-1.125-7.877-1.125-7.877-1.129-11.251l-.01-2.284.006-2.39-.003-2.512.005-5.216-.006-8.005.004-5.08-.006-2.421c.024-5.611.024-5.611 1.139-7.841 2.62-.379 2.62-.379 6.082-.562l3.764-.227 3.967-.211 7.707-.437 3.472-.184c2.83-.356 4.592-.917 7.009-2.379-1.733-7.287-4.3-12.547-8.875-18.437l-3.516-4.703-1.814-2.42c-2.918-3.966-5.665-8.046-8.42-12.127-3.84-5.66-7.739-11.256-11.812-16.75-10.564-14.249-20.546-28.926-30.562-43.562-5.453 3.884-10.424 8.129-15.363 12.645-2.652 2.369-5.371 4.62-8.137 6.855-4.479 3.623-8.761 7.405-13 11.305-3.358 2.949-6.934 5.575-10.566 8.176-4.757 4.968-3.12 14.501-3.119 20.948l-.039 6.115c-.427 15.347-.427 15.347 3.975 29.707 4.162 4.162 9.285 4.518 14.961 4.883l3.4.231 4.264.261L1398 516v47h-166v-47l21-1c8.237-.973 8.237-.973 15-5h2c2.075-11.417 2.286-22.501 2.259-34.065l.011-5.957v-16.059l.003-16.862-.011-28.294.004-32.661.005-28.116.003-16.761-.01-15.75.003-5.764c.857-17.565.857-17.565-6.265-32.711-7.256-3.221-14.807-3.52-22.625-3.687L1232 273v-47zm715 0h283l19 53 6.012 16.699 3.539 9.833 2.375 6.584 3.586 9.958 1.079 2.978.967 2.697.849 2.355C2268 332 2268 332 2268 334l-17.78 6.409-6.05 2.183-8.69 3.127-2.737.994-2.547.91-2.241.807C2226 349 2226 349 2223 349l-.759-1.598c-10.67-22.297-22.528-42.428-44.241-55.402l-2.562-1.555c-7.148-3.775-14.73-4.73-22.651-5.707l-11.144-1.522c-15.285-2.19-30.22-2.576-45.643-2.404l-24 .188v82c24.327 1.512 24.327 1.512 47-6h2c3.953-13.449 3.655-27.077 4-41h45l.052 55.883.024 25.946.019 22.606.012 11.977.007 11.26.006 4.145.001 5.635.003 3.193C2170 459 2170 459 2169 460c-1.382.093-2.768.117-4.153.114h-2.669l-2.901-.016-2.955-.004-9.385-.031-6.346-.014L2125 460l-.044-2.32-.268-10.555-.068-3.648c-.261-8.741-.934-18.88-6.767-25.958-7.854-6.436-21.503-4.885-31.165-4.706l-4.303.041L2072 413l.339 35.048.158 16.273.156 15.697.056 5.996.086 8.383.017 2.518c.042 3.276.145 5.956 1.188 9.085 9.514 2.439 18.811 2.313 28.563 2.25l2.622-.01c32.595-.152 65.59-1.523 91.816-23.24l2.539-2.082c19.093-16.403 29.853-38.138 39.461-60.918 8.597 2.205 17.034 4.833 25.447 7.651l4.41 1.437 6.432 2.123 2.001.622c1.834.637 1.834.637 4.71 2.167 1.367 3.965.804 6.527-.576 10.409l-1.129 3.233-1.263 3.495-1.294 3.672-3.507 9.841-3.631 10.226-7.256 20.368-4.79 13.435-7.404 20.721L2240 563h-293v-47l17.141-1.046c7.896-.539 13.232-1.536 19.859-5.954 2.049-5.36 2.285-10.266 2.254-15.957l.009-2.664-.005-8.799.011-6.324v-17.15l.003-17.955-.011-30.152.004-34.851.005-29.932.003-17.873-.01-16.803.003-6.164-.011-8.419.014-2.459c-.039-5.734-.502-10.985-3.892-15.811-6.633-4.713-15.577-4.097-23.375-4.312l-12-.375v-47zm3165.012 81.215c1.889 1.465 3.408 2.99 4.988 4.785l2.016 2.27c5.168 6.786 5.793 12.73 4.688 20.918-1.765 9.569-4.733 15.111-12.703 20.813l-2.649 2.06c-3.841 2.224-6.838 2.542-11.155 2.549l-2.194.05-6.876.091-4.687.09L5072 361l.611 2.285c7.494 28.277 12.669 52.267-1.466 79.258-4.271 7.272-9.287 13.417-15.145 19.457l-1.633 1.855c-16.474 18.089-44.608 26.07-68.171 27.351a407.2 407.2 0 0 1-11.821.106h-2.097c-10.361-.011-20.352-.793-30.539-2.754-3.431-.513-5.489-.655-8.738.441-5.269 3.822-5.269 3.822-9 9 .604 3.062.604 3.062 2 6l.772 2.115c1.089 2.092 1.089 2.092 3.46 2.659l2.736.38 3.005.446L4939 510l5.154.776 5.368.748 2.996.42 6.387.892 10.179 1.429 28.924 4.059 17.759 2.497 6.692.934c11.398 1.575 22.703 3.347 33.956 5.766l2.776.593c18.586 4.151 35.177 11.304 48.809 24.886l1.707 1.637c10.244 10.731 13.721 24.914 13.732 39.281-.483 17.792-9.223 31.631-21.439 44.083l-1.789 1.863c-17.659 16.92-45.91 25.05-69.273 29.387l-2.461.458c-17.118 2.951-34.065 3.639-51.407 3.608-3.602-.003-7.203.02-10.805.046-20.246.056-40.714-1.04-60.389-6.174l-3.106-.781c-20.826-5.397-42.508-13.689-54.769-32.406-5.183-9.07-6.546-17.728-4.352-28.051 5.4-16.314 19.388-24.775 33.537-32.904l3.759-2.199C4885.779 568 4885.779 568 4888 568v-2l-2.113-.312c-12.35-2.941-23.079-12.016-29.887-22.437-5.658-9.304-6.551-18.784-4.348-29.391 3.229-9.701 9.936-18.858 17.348-25.859h2v-2c1.481-1.373 1.481-1.373 3.543-2.934l2.256-1.717 2.389-1.787 2.33-1.775C4891.815 470 4891.815 470 4895 470c-3.567-3.619-7.235-7.088-11-10.5l-6-5.5-2.621-2.402c-2.725-2.976-4.64-6.081-6.441-9.66l-1.041-2.066c-4.028-8.535-5.445-17.617-6.896-26.872l-.578-3.191c-2.86-19.037 2.985-37.488 14.08-52.899 16.579-22.039 42.186-35.785 69.205-40.083 15.983-2.173 31.91-1.023 47.856.861l3.959.449c11.812 1.531 23.232 4.526 33.603 10.551 3.572 2.05 7.011 3.876 10.875 5.313l1.398-1.836c10.76-13.823 20.105-22.421 37.102-26.977l3.301-.943c11.135-3.063 20.014-3.187 30.211 2.971zm-168.477 69.336c-8.741 10.707-8.609 25.388-7.535 38.449 1.478 10.074 7.269 17.125 14.926 23.527 8.272 5.873 17.881 5.879 27.566 4.316 8.342-2.007 14.083-6.494 19.039-13.402 2.376-3.949 4.062-8.061 5.469-12.441l.586-1.793c2.343-12.488.66-26.153-5.773-37.082-3.301-4.813-6.748-8.228-11.812-11.125l-1.758-1.023c-15.06-7.106-30.23-.518-40.707 10.574zm-23.518 216.053c-3.227 5.208-4.667 10.443-3.33 16.521 3.832 8.394 11.104 11.701 19.313 14.875 8.426 2.789 17.21 4.189 26 5.25l1.97.243c13.476 1.392 26.988.508 40.407-.983l7.159-.737c12.881-1.35 27.201-3.069 36.527-12.961 1.447-4.342.719-8.363-.062-12.812l-.262-2.152c-1.096-2.744-2.633-3.171-5.301-4.348-14.528-5.913-29.729-7.702-45.187-9.5l-3.161-.37-3.202-.374-3.213-.376-6.416-.746c-5.814-.683-11.597-1.46-17.377-2.389l-9.748-1.462a144.28 144.28 0 0 1-4.433-.746c-13.248-2.429-21.714 2.601-29.683 13.068zM1223 623h166v47l-17.889 1.046-3.4.223-3.459.206c-4.791.772-8.255 2.86-12.251 5.524-3.176 9.302-3.43 18.963-3.372 28.69l-.011 4.229.013 11.356.005 11.985.029 20.13.018 23.121.011 22.412.003 9.457c-1.146 44.911-1.146 44.911 18.299 83.881 14.323 12.424 31.51 16.034 50.004 14.738 17.337-1.914 32.283-10.393 43.313-23.812 15.973-23.013 11.85-56.807 11.855-83.365l.005-7.171.013-25.078.026-23.298.018-20.111.013-11.967.002-11.219.015-6.054c.316-10.028.316-10.028-3.885-18.738L1467 675v-2c-4.255-.795-8.35-1.166-12.676-1.281l-3.756-.113-7.82-.211-3.736-.113-3.423-.092C1433 671 1433 671 1432 670v-47h142v47l-19.025.866c-9.271.33-9.271.33-17.394 4.29-6.387 7.449-5.007 20.381-4.966 29.636l-.016 4.657-.01 9.964-.028 15.824-.061 33.638-.071 36.229-.019 13.12c.052 41.92-4.095 80.587-34.911 111.713-5.451 5.349-10.916 10.139-17.5 14.063l-1.672 1.036c-35.177 21.704-79.956 26.483-119.898 17.378-32.348-7.729-62.588-26.702-80.427-55.275-14.529-24.092-15.126-52.104-15.176-79.462l-.02-4.643-.036-9.878-.065-15.636-.182-44.42-.107-24.625-.056-15.532-.046-9.651-.012-4.461-.031-6.105-.013-3.444c-.432-5.477-1.707-10.995-5.259-15.281-6.72-2.69-13.788-2.444-20.937-2.625L1223 671v-48zm2287-415l1 133 10-6 7.875-4.062 1.871-.947L3537 327l2.594-1.242c7.766-3.507 15.557-5.292 23.904-6.698l6.508-1.171c7.362-1.314 14.572-2.13 22.057-2.162l2.043-.012c19.523.26 38.601 9.768 52.609 22.911 15.026 15.616 17.424 35.118 17.443 55.798l.015 3.64.031 9.793.048 10.289.149 34.973.088 19.364.039 10.225.055 11.388-.009 3.401c.059 5.555.197 9.75 3.426 14.505 7.847 5.682 27.074 3.742 33 4v47h-144v-47l20-2c5.2-2.41 5.2-2.41 6.296-6.519.978-5.037.984-10.061.962-15.176l.011-3.157-.004-10.273.006-7.172-.011-15.009.007-19.206v-14.804l.005-7.081-.014-9.907.012-2.935c-.035-5.608-.704-10.373-2.271-15.76l-.75-3.375c-1.03-2.904-1.03-2.904-4.125-3.875L3574 379l-1.742-1.023c-9.783-4.231-24.764-.658-34.258 3.023-6.531 2.938-12.842 6.349-19 10l-1.951.867c-4.396 2.197-4.396 2.197-6.783 6.296-.268 2.769-.278 5.441-.206 8.223l-.013 3.165.102 10.351.02 7.2.118 15.088.135 19.332.102 18.443.021 3.552.102 9.967.016 2.971c.087 5.54.307 10.553 3.525 15.295 6.673 4.602 16.413 3.757 23.813 4.25v47h-143c0-46 0-46 1-47 1.539-.133 3.084-.203 4.629-.246l2.889-.1 6.008-.172c6.95-.247 12.862-1.278 19.475-3.482.937-5.551 1.152-10.912 1.158-16.536l.015-2.852.032-9.429.03-6.771.068-18.364.076-19.199.123-32.217.125-33.178.008-2.067.041-10.267L3431 276h-35v-48l11-1.187c16.176-1.919 31.777-4.687 47.266-9.805l2.509-.817 12.293-4.177c14.911-4.957 23.639-4.014 40.933-4.014zm-1010.949 5.886l4.047.016 2.148.004 6.817.031 4.611.014L2528 214l1.438 3.813.809 2.145A168.07 168.07 0 0 1 2532 225l190 1 2-9 2-3c2.554-.267 4.863-.348 7.414-.293l2.211.013 7 .093 4.742.041L2759 214l.707 2.028 6.877 19.711 3.714 10.645 15.709 44.785 2.025 5.724 6.326 17.833 2.259 6.382 1.048 2.927.94 2.666.822 2.311C2800 331 2800 331 2800 334l-18.207 6.409-6.195 2.183-8.899 3.127-2.803.994-2.608.91-2.295.807C2757 349 2757 349 2754 349l-1.051-2.073c-12.555-24.689-12.555-24.689-28.949-46.927l-1.598-1.852c-8.808-9.479-18.676-14.667-30.777-18.773l-3.135-1.076c-7.717-2.533-7.717-2.533-15.49-1.299-3.228 4.905-3.426 9.024-3.374 14.682l-.012 2.611.014 8.642-.011 6.205.013 16.848.005 17.655.029 29.671.018 34.239.011 32.984.003 14.01.022 16.535.002 6.045c-1.127 17.481-1.127 17.481 4.168 33.088 4.204 3.554 6.741 4.106 12.185 4.417l3.792.231 4.822.261L2710 516v47h-165v-47l17.889-1.046 3.4-.223 3.459-.206c3.563-.574 6.091-1.825 9.251-3.524h2c3.514-11.438 3.42-22.48 3.372-34.332l.011-6.4-.013-17.273-.005-18.104-.029-30.365-.018-35.117-.011-33.813-.003-14.384-.022-16.909-.002-6.211-.018-8.461.011-2.496c.035-5.413.035-5.413-2.272-10.135-9.261-2.819-19.308.807-27.918 4.293-8.781 4.864-15.584 12.003-22.52 19.145l-5.309 5.434-2.334 2.404C2522 310 2522 310 2520 310l-.746 2.047c-1.512 3.56-3.388 6.859-5.316 10.203-2.561 4.473-5.07 8.958-7.426 13.543l-1.213 2.353-2.292 4.533c-2.678 5.211-2.678 5.211-6.008 6.321-1.949-.436-1.949-.436-4.18-1.232l-2.538-.891-2.728-.991-2.805-.999-5.866-2.111-9.013-3.22-5.691-2.045-2.74-.972-2.519-.919-2.227-.803C2455 334 2455 334 2454 332c.806-2.746 1.688-5.4 2.656-8.09l.889-2.529 2.954-8.319 2.056-5.825 4.294-12.149 8.961-25.639 13.841-39.524 1.431-4.065 1.941-5.493 1.091-3.09c1.265-3.254 1.265-3.254 4.936-3.39zM3578 719h152v47c-7.842 1.12-7.842 1.12-11.227 1.246l-2.187.1-4.445.172c-4.106.195-7.432.672-11.141 2.482.347 7.137 1.765 12.87 4.656 19.379l1.135 2.65 3.709 8.534 2.562 5.959 3.956 9.201L3730.563 848l2.18 5.264L3740 871c1.966-2.949 3.343-5.792 4.801-9.02l.826-1.824 2.686-5.969.937-2.081 18.184-41.47 4.79-10.98 3.027-6.969 1.413-3.179c2.848-6.614 4.337-12.256 4.337-19.509-6.71-2.424-13.36-2.439-20.437-2.625L3748 767v-48l51.189-.052 23.766-.024 20.707-.019 10.971-.012 12.227-.008 3.701-.011 3.344.004 2.925-.003C3879 719 3879 719 3880 720c.098 1.401.128 2.808.129 4.213l.01 2.71-.006 2.948.003 3.008-.005 6.312.006 9.685-.004 6.119.006 2.942-.01 2.72-.002 2.4C3880 765 3880 765 3879 767l-3.656.113-4.844.199-2.398.068c-5.341.241-10.603.497-15.102 3.619-7.148 8.243-11.376 19.593-16.062 29.375l-2.53 5.238-6.261 13.004-5.006 10.368-11.965 24.806-4.656 9.665-2.552 5.305-8.635 17.576-16.27 32.977-1.658 3.384-20.967 42.928-.997 2.047-10.585 22.171c-2.852 6.089-5.801 12.105-8.98 18.031l-1.289 2.417-2.493 4.658-2.71 5.203c-11.278 21.697-28.477 41.283-52.219 49.211-22.588 6.622-46.957 5.89-67.906-5.324-10.886-6.814-19.401-16.188-23.195-28.602-2.462-10.765-1.288-20.589 4.563-30.062 5.689-7.962 12.337-13.283 21.688-16.062 12.08-1.405 22.902.126 32.688 7.688 3.317 3.026 6.437 6.237 9.531 9.488 2.964 3.016 3.586 3.445 7.781 3.762 4.844-.328 6.976-1.399 10.27-4.961 8.109-9.848 13.612-21.368 18.98-32.852l1.376-2.885 1.253-2.743 1.131-2.444c1.364-4.761-.709-8.517-2.807-12.775l-1.562-3.201-1.703-3.451-3.609-7.41-.932-1.914c-2.993-6.164-5.853-12.386-8.709-18.614-6.099-13.255-12.517-26.347-18.947-39.444l-17.292-36.37a474.73 474.73 0 0 0-8.687-18.067c-3.125-6.159-6.097-12.388-9.075-18.618l-10.5-21.75-.914-1.893c-2.451-4.94-4.967-8.778-9.586-11.857-7.546-1.509-15.316-1.573-23-2v-48zm-1889.555-6.098l2.938.008 3.742.028L1707 713v31l8.938-5.437c6.633-3.994 13.3-7.904 20.125-11.562l1.939-1.056c10.411-5.488 20.975-7.956 32.495-9.809l7.101-1.197c24.284-4.074 45.655-.947 66.402 13.063 3.54 2.811 6.799 5.81 10 9l1.965 1.895c18.039 18.749 15.164 48.787 15.234 72.801l.053 11.2.149 31.804.101 19.549.026 7.418.055 10.343-.009 3.073c.067 5.712.572 9.912 3.426 14.917 6.096 2.961 13.273 2.443 19.938 2.625l3.518.117L1907 913c1.231 4.791 1.144 9.477 1.133 14.387l.003 2.722-.005 5.676.006 8.71-.004 5.518.006 2.639c-.024 6.119-.024 6.119-1.139 8.349l-55.492.052-25.764.024-22.448.019-11.893.012-11.181.007-4.116.006-5.595.001-3.17.003C1765 961 1765 961 1764 960a68.13 68.13 0 0 1-.114-4.428v-2.851l.016-3.1.004-3.157.031-10.027.014-6.779L1764 913l3.945-.148 5.18-.227 2.594-.094c6.943-.155 6.943-.155 13.281-2.531 2.411-6.239 2.287-13.084 2.259-19.669l.011-3.113-.004-10.116.006-7.079-.011-14.812.007-18.92v-14.614l.005-6.973-.014-9.776.012-2.869c.049-11.705.049-11.705-4.584-21.997L1784 778l-2.25-2.312c-3.944-2.42-7.306-2.094-11.75-1.687l-3.461.285c-14.29 1.517-26.391 6.913-38.485 14.437a118.21 118.21 0 0 1-4.144 2.461c-3.085 1.953-5.466 3.471-6.642 7.032-.275 2.72-.293 5.337-.224 8.07l-.018 3.097.087 10.111.013 7.046.106 14.763.107 18.891.065 14.552.034 6.963.094 9.75.005 2.888c.103 5.868.969 10.316 3.462 15.656 4.066 2.824 9.433 2.406 14.25 2.563 8.628.316 8.628.316 9.75 1.438a68.13 68.13 0 0 1 .114 4.428v2.851l-.016 3.1-.004 3.157-.031 10.027-.014 6.779L1745 961l-55.492.052-25.764.024-22.448.019-11.893.012-11.181.007-4.116.006-5.595.001-3.17.003C1603 961 1603 961 1602 960a64.36 64.36 0 0 1-.129-4.32l-.01-2.781.006-3.024-.003-3.083.005-6.466-.006-9.936.004-6.266-.006-3.024.01-2.781.002-2.46C1602 914 1602 914 1603 913a112.7 112.7 0 0 1 5.574-.246l3.463-.1 7.242-.172 3.482-.104 3.186-.076c3.486-.346 5.947-.627 9.052-2.303 2.271-6.603 2.305-12.994 2.319-19.924l.03-3.55.065-11.557.059-8.037.117-18.954.138-21.591L1638 782l-3.197.016-11.702.039-5.072.021-7.275.022-2.304.016c-1.817 0-3.634-.051-5.45-.113-1-1-1-1-1.12-2.867l.007-2.47v-2.791l.016-3.033.004-3.09.031-9.813.014-6.635L1602 735c3.314-1.745 6.1-2.484 9.82-3.043l3.522-.554 3.783-.59c22.082-3.639 47.778-18.024 69.32-17.91zM3839 316c1.86 1.86 1.241 4.949 1.316 7.441l.127 3.955.119 4.166.131 4.178L3841 346l2.169-1.391c12.228-7.815 24.55-14.753 37.831-20.609l2.217-.996c3.468-1.251 6.962-1.896 10.583-2.512l2.285-.395 4.793-.812 7.162-1.25c12.891-2.219 26.072-3.653 38.959-.535l2.242.524c17.536 4.474 34.71 15.365 44.508 30.718 10.462 19.302 9.392 41.143 9.48 62.438l.065 11.664.182 33.132.12 20.336.037 7.733.063 10.776.002 3.222.029 2.968.013 2.568c.418 3.906 1.478 6.638 4.259 9.419 10.349 2.871 10.349 2.871 31 3v47h-142v-47l19-2 5-1c1.934-6.495 2.286-12.384 2.259-19.138l.011-3.3-.004-10.746.006-7.501-.014-17.71.004-14.086.007-19.479.005-7.405-.014-10.366.012-3.066c.054-8.814.054-8.814-2.271-17.202-1.92-1.154-1.92-1.154-4-2l-2.227-2.094c-3.674-2.525-6.844-2.513-11.148-2.406l-2.414.043c-13.505.472-25.399 4.918-36.766 12.051C3862 390 3862 390 3858.993 391.189c-3.667 1.753-6.69 3.428-8.993 6.811-2.287 7.375-1.44 15.598-1.242 23.215l.037 6.896.265 18.124.155 14.76.169 17.657.039 3.38.161 9.526.035 2.811c.096 4.204.342 8.374.971 12.533l.305 2.105c1.429 2.979 1.429 2.979 8.106 5.992l18 1v47h-142v-47l17.321-1.046 3.284-.223 3.348-.206c3.515-.605 5.325-1.199 8.046-3.524 3.185-6.654 3.414-12.44 3.341-19.74l.001-3.491-.049-11.362-.013-7.902-.064-18.635-.065-21.229L3770 385l-3.105.016-11.366.039-4.927.021-7.067.022-2.238.016c-1.766 0-3.532-.051-5.297-.113-1.587-1.587-1.127-3.212-1.129-5.412l-.01-2.841.006-3.09-.003-3.15.005-6.608-.006-10.153.004-6.402-.006-3.09.01-2.841.002-2.514c.127-1.9.127-1.9 1.127-2.9 1.858-.37 3.726-.686 5.598-.98l3.581-.579 3.884-.628c15.713-2.623 31.428-5.512 46.363-11.195 14.624-5.563 27.808-8.74 43.574-6.617zm-2208-90h166v47l-17.709.298c-7.127.195-12.336.629-18.291 4.702-1.489 2.608-2.341 5.077-3 8l-.521 2.105c-.624 3.775-.62 7.493-.613 11.307l-.007 2.559-.005 8.486-.01 6.086-.012 16.531-.008 13.8-.01 32.557-.026 33.586-.018 28.836-.013 17.222-.002 16.197-.007 5.942.005 8.117-.016 2.369c.03 4.789.597 8.787 2.263 13.298 5.257 3.306 12.069 2.34 18.063 2.313l3.789-.013c30.156-.363 55.169-8.669 76.633-30.433 4.42-4.613 8.19-9.398 11.515-14.867l1.949-3.203c6.956-11.7 12.662-23.904 17.051-36.797 9.931 2.466 19.531 5.836 29.188 9.188l4.908 1.693L1934 437c-1.325 6.525-3.129 12.644-5.387 18.902l-1.012 2.845-3.289 9.19-2.297 6.44-4.713 13.186-6.412 17.991-2.909 8.174-1.787 5.023L1890 563h-259v-47l22-1c8.893-1.71 8.893-1.71 15-7 2.179-4.99 2.285-9.497 2.261-14.837l.012-2.661.002-8.809.015-6.323.011-17.163.009-14.329.005-33.804.028-34.873.02-29.944.015-17.883-.002-16.816.009-6.169-.01-8.426.022-2.461c-.062-6.566-1.718-10.985-5.397-16.503-6.99-3.503-13.791-3.538-21.5-3.687L1631 273v-47zm3048.063 89.688l2.024.007c40.038.206 75.574 12.419 104.442 40.785 22.411 23.169 30.94 54.6 31.721 86.083-.751 29.984-9.077 58.033-28.25 81.438l-2.078 2.578c-16.971 19.988-41.628 32.77-66.922 38.422l-2.142.48c-40.818 8.749-86.534 3.245-122.046-19.23-25.132-17.415-42.808-43.479-48.684-73.543-6.116-33.857-3.837-71.077 16.09-100.289 5.145-6.984 10.522-13.412 16.781-19.418l2.363-2.43c15.884-15.484 36.282-24.738 57.449-30.445l2.129-.579c12.192-3.067 24.591-3.914 37.121-3.859zm-11.5 57.875l-3.314.979c-11.841 3.743-19.522 11.201-25.654 21.916-12.273 24.958-11.778 57.879-3.781 84.043 3.484 9.426 8.79 21.614 18.134 26.522 2.329 1.059 4.676 2.034 7.054 2.978l2.266.909c12.473 4.81 22.026 6.612 34.976 1.915 14.009-6.327 22.929-17.157 28.508-31.262 8.553-25.97 8.882-59.476-2.75-84.562-6.168-11.54-14.397-20.742-27.062-25.039-10.527-2.816-18.112-1.671-28.375 1.602zM4299 347l2.617 2.172c20.462 17.738 33.12 42.17 37.383 68.828l.555 3.434c.788 6.611.69 13.293.695 19.941l.002 2.164c-.017 11.057-.5 21.708-3.252 32.461l-.504 2.024c-5.041 19.556-15.107 37.083-29.122 51.545a222.73 222.73 0 0 0-3.777 4.059c-23.586 25.077-59.565 34.097-92.853 35.299-40.341.904-78.261-8.922-107.971-37.232L4100 529l-2.148-2.07c-21.422-22.296-29.301-54.564-29.164-84.617l.017-3.97c.417-33.506 12.042-62.902 35.989-86.575 20.48-19.528 47.456-30.883 75.307-34.768l1.952-.281c41.278-5.339 84.707 3.312 117.048 30.281zm-107.5 26.688l-3.34 1.029c-12.795 4.109-19.408 10.656-25.895 22.432-11.597 23.71-11.742 56.286-4.199 81.402 4.387 12.322 10.545 24.895 22.828 30.853 3.132 1.187 6.272 2.199 9.48 3.158l3.211 1.072c12.038 3.755 22.233 2.058 33.414-3.635 8.107-5.277 13.861-11.87 19-20l1.238-1.914c7.163-12.556 7.964-28.788 8.002-42.834l.072-6.457c.157-20.459-4.276-41.178-18.625-56.607-8.246-7.642-17.636-11.402-28.77-12.488-5.759.442-10.946 2.206-16.418 3.988zm1525.707-57.891l2.3-.021 7.306-.026 2.517-.002c12.103.016 23.876.261 35.67 3.252l2.05.504c13.889 3.543 27.519 9.796 38.95 18.496l2.07 1.574c13.094 10.68 18.244 26.04 19.93 42.426 1.762 22.502 1.078 45.202 1 67.75l-.056 20.91-.032 8.267c-.968 15.812-.968 15.812 4.088 30.073v2l1.898.621 2.477.816 2.461.809C5842 514 5842 514 5844 515c8.706.59 14.901-1.18 24-3v48c-5.486 2.057-9.89 3.553-15.5 4.625l-3.719.727c-23.424 4.017-49.579 2.815-69.656-11.164-5.132-3.981-9.673-8.471-14.125-13.187l-2-2-2.98 1.836c-15.979 9.707-31.948 18.618-50.555 21.743l-8.277 1.538c-23.263 4.418-46.32 4.085-67-8.93-16.921-12.246-27.008-26.747-30.84-47.266-1.278-14.413 2.894-35.121 11.695-46.723L5617 459l2.176-2.543c26.922-29.125 73.93-34.377 111.074-38.77l2.236-.265c6.856-.802 13.597-1.522 20.514-1.423l-.375-12.812-.094-3.623c-.118-14.412-.118-14.412-5.988-27.135-6.368-5.9-15.674-7.861-24.121-7.613-7.566.574-13.621 1.67-19.863 6.16C5701 372 5701 372 5699 372l-.851 1.706-6.399 12.544-1.41 2.777c-6.315 12.195-14.683 23.62-28.34 27.973-11.326 1.513-23.805-.42-33.07-7.344-6.453-5.539-11.129-11.903-12.157-20.574-1.064-14.272 1.941-25.934 11.228-37.082 21.139-24.467 57.629-36.007 89.207-36.203zm17.94 144.492l-6.141 1.139c-21.673 3.966-21.673 3.966-38.982 16.072-4.734 7.718-5.802 14.223-4.523 23.125 1.124 4.655 3.487 6.599 7.41 9.16 9.422 5.477 18.421 6.463 29.09 4.215 6.354-2.021 12.544-4.699 18.466-7.759C5743 505 5743 505 5745.834 504.095c3.327-1.315 4.961-2.245 7.166-5.095 1.699-6.748.931-13.995.625-20.875l-.137-5.844L5753 458c-6.08-.208-11.915 1.145-17.853 2.289zM2972.01 318.344l7.356 1.172c22.458 3.576 44.095 12.494 57.974 31.387l2.417 3.372c2.137 2.962 4.383 5.838 6.619 8.725l2.398 3.125c1.371 1.771 2.787 3.509 4.27 5.188 2.661 3.654 4.239 7.499 5.895 11.688l1.047 2.643c7.591 19.845 9.015 38.062 9.015 59.357h-163c2.578 21.914 6.865 39.503 24 54 13.364 10.209 28.78 13.676 45.359 11.574 25.224-4.737 45.156-19.407 62.641-37.574 2.876 1.307 4.971 2.71 7.224 4.917l1.829 1.78 1.935 1.919 2.008 1.98 4.178 4.151 6.445 6.333 4.057 4.035 1.966 1.907 1.781 1.8 1.585 1.57c.992 1.606.992 1.606.732 3.697-.876 2.258-1.96 3.573-3.619 5.335l-1.779 1.903-1.904 1.983-1.947 2.05c-4.296 4.485-8.634 8.758-13.49 12.638l-3.031 2.504c-32.767 26.731-71.611 38.792-113.849 34.597-26.257-3.071-51.626-13.347-70.787-31.875-2.312-2.274-2.312-2.274-4.93-4.297-21.818-17.525-34.419-48.124-37.68-75.236-3.217-32.765 4.358-65.623 24.871-91.792 22.367-26.979 53.031-45.101 88.398-48.612 13.525-1.084 26.662-.191 40.017 2.053zM2918 379c-1.393 2.423-2.602 4.722-3.75 7.25l-.918 1.871c-2.456 5.294-2.639 8.638-3.332 14.879h80c-2.69-15.767-2.69-15.767-11-27l-2.102-2.168c-7.48-7.256-14.462-10.171-24.898-10.27-13.488.236-24.943 5.191-34 15.438zm-362.039 335.355l2.763.435 5.743.926 8.682 1.356c9.85 1.56 18.9 3.303 27.852 7.928l2.073 1.035c4.089 2.122 8.01 4.544 11.927 6.965l2.43 1.473c7.561 5.193 12.614 13.014 17.949 20.332a246.12 246.12 0 0 0 4.652 6.075c18.127 23.268 23.299 52.176 21.969 81.121-1 1-1 1-3.637 1.123l-3.595-.003-1.995.003c-2.222.002-4.444-.004-6.666-.009h-4.759a7719.95 7719.95 0 0 1-12.96-.013l-13.529-.008-25.638-.021-29.18-.022L2500 843l-.042 4.733-.023 2.662c.094 3.79.784 7.31 1.69 10.98l.542 2.213c4.041 15.526 13.389 28.57 26.833 37.412 15.905 8.599 31.829 9.489 49 5 21.19-6.507 37.935-19.104 53-35 2.905 1.314 4.967 2.721 7.208 4.981l1.819 1.82 1.926 1.957 2.001 2.009 6.296 6.358 4.281 4.309L2665 903c-1.332 3.921-2.947 6.331-5.859 9.258l-2.36 2.379-2.53 2.488-2.601 2.572c-6.841 6.681-13.867 12.758-21.649 18.303l-1.746 1.274c-31.128 22.581-69.858 31.147-107.878 25.901-34.581-5.728-64.841-24.408-85.525-52.677-10.235-14.465-17.078-30.208-20.851-47.498l-.742-3.395c-5.806-32.886 1.644-66.707 20.055-94.355 21.625-30.022 52.447-46.662 88.442-52.891 11.455-1.833 22.772-1.85 34.207-.004zm-17.203 47.016c-10.422 1.683-19.458 6.075-26.793 13.762-5.095 7.063-8.965 16.179-8.965 24.867h80c-2.306-13.838-5.859-23.762-16.93-32.648-9.046-5.905-16.863-7.177-27.312-5.98zM3087 729l.813-2.75c1.817-4.972 1.817-4.972 4.188-7.25a43.65 43.65 0 0 1 7.512-.391l2.207.017 6.969.123 4.729.055L3125 719l6.989 23.446 3.245 10.889 3.132 10.523 1.195 3.999c2.015 6.708 3.883 13.145 4.439 20.143l-46 18-1.73-2.387c-15.21-20.61-33.798-36.042-59.582-40.988-9.839-1.242-22.026-2.15-30.34 4.023-1.903 1.908-3.254 3.568-3.578 6.289l.043 2.063.02 2.063c.111 2.155.111 2.155 1.168 4.938 10.863 8.618 26.369 12.586 39.289 17.082l3.955 1.389 16.507 5.78c74.411 25.959 74.411 25.959 88.562 53.811 7.014 16.328 7.64 35.152 1.688 51.938-8.987 21.662-25.715 35.731-46.875 45.25-32.354 13.214-69.06 12.067-101.125-1.25-4.868-2.342-9.465-5.066-14-8l-.75 2.563C2990 954 2990 954 2986 961h-33l-7.91-19.484-.755-1.975-2.397-6.291-1.688-4.43-4.366-11.492-1.77-4.665-5.123-13.537-1.604-4.241-2.218-5.886-1.273-3.375C2923 883 2923 883 2923 881l14.404-6.189 4.888-2.101 13.741-5.873 5.226-2.25 2.687-1.135 2.211-.948C2968 862 2968 862 2971 863c1.727 2.152 1.727 2.152 3.625 4.938 4.078 5.763 8.536 10.931 13.375 16.063l2.008 2.238c16.047 17.176 40.861 30.04 64.293 31.949 2.258.066 4.445-.027 6.699-.187l3.129-.172c8.459-.823 13.322-3.364 18.871-9.828 1.382-2.765 1.095-5.046 1.063-8.125l-.027-3.32L3084 894l-1.754-.836c-2.186-1.133-4.136-2.424-6.184-3.789-4.967-2.977-10.064-5.061-15.465-7.086l-2.773-1.048c-11.717-4.382-23.593-8.303-35.464-12.241-70.287-23.361-70.287-23.361-85.896-51.797-7.265-15.335-8.301-32.292-3.461-48.582 3.382-9.454 8.382-18.047 14.996-25.621h2v-2c36.662-35.413 94.256-35.184 137-12zm-990-10h149v47c-5.949.85-11.71 1.313-17.695 1.621-3.917.449-6.806 1.251-9.969 3.632-1.553 1.686-1.553 1.686-1.437 4.052 1.498 8.778 4.588 16.559 8.064 24.701l5.362 12.771 1.139 2.716 13.35 33.007 3.452 8.666 2.06 5.176L2256 876c2.583-2.583 3.419-5.101 4.809-8.488l.844-2.043 1.824-4.436 5.011-12.15 1.082-2.62 8.473-20.208 1.282-3.027 5.033-11.866L2292 793l.862-2.075 2.174-5.379 1.153-2.876c1.286-4.227 1.256-8.305.812-12.671l-6.437-1.5-3.621-.844c-7.253-.963-14.624-.656-21.941-.656l-1-48h130v48l-18 1c-14.282 7.141-18.727 20.05-25 34l-2.507 5.493-5.074 11.165-6.614 14.514-7.84 17.148-11.448 24.959-17.204 37.596-.918 2.019-10.406 23.02-1.964 4.364-3.722 8.292-1.669 3.711-1.472 3.283C2279 960 2279 960 2278 961c-2.025.094-4.053.117-6.08.114h-3.943l-4.293-.016-4.368-.004-11.516-.025-11.743-.02L2213 961l-20.664-43.571-4.629-10.261-.944-2.087-9.576-20.706-15.937-34.312-2.272-4.924-10.653-23.132-4.848-10.537-2.286-4.976-10.961-23.302-1.601-3.271c-2.763-4.951-5.523-8.367-10.63-10.92-6.822-1.705-13.98-1.587-21-2v-48zm3451.42-372.412c10.736 9.594 20.647 22.329 21.892 37.126.229 14.34-2.151 22.799-12.277 33.328-8.638 7.511-20.122 11.787-31.535 11.02-5.596-.542-10.446-1.58-15.5-4.062l-2.227-.957c-10.952-5.183-15.782-17.318-21.211-27.543l-1.928-3.57C5481 383.268 5481 383.268 5481 381h-2l-3.437-3.559c-7.334-6.765-14.734-7.9-24.352-7.711-10.575.483-19.579 5.048-27.211 12.27-14.273 16.519-19.6 42.683-18.387 64.141 2.027 20.228 9.797 39.487 25.578 52.855 7.23 5.158 15.911 9.88 24.809 11.004l3.102.398c22.085 2.204 41.51-5.276 58.641-18.91 7.243-5.961 15.038-12.659 20.257-20.488 8.883 3.98 16.161 12.002 23.204 18.6 4.725 4.401 9.673 8.468 14.796 12.4-4.161 5.926-8.789 10.986-14 16l-2.437 2.438L5557 523l-1.707 1.848c-26.255 27.661-63.346 42.89-101.184 44.182-38.745.583-72.341-11.754-100.402-38.393-22.838-22.245-35.398-52.1-36.063-83.904-.218-36.612 12.617-68.651 38.356-94.733 48.562-48.649 141.217-49.225 192.42-5.412zm-2304.482-30.775l2.101.003c10.428.031 20.692.179 30.962 2.185l2.342.457c23.389 4.782 43.49 14.877 60.658 31.543l1.918 1.73c8.615 8.007 15.417 19.515 17.082 31.27.089 17.931.089 17.931-5 25l-1.246 2c-6.478 9.69-16.615 14.995-27.781 17.652-11.372 2.006-23.253-1.13-32.661-7.589-7.09-5.988-10.952-14.49-15.234-22.551l-1.571-2.937-3.032-5.795c-4.392-8.311-9.382-14.917-18.475-18.119-12.443-2.738-23.871-.576-34.687 6.027-13.419 9.585-18.852 22.81-21.756 38.437l-1.361 6.917c-4.608 23.363-.993 44.783 12.191 64.787 1.529 2.176 1.529 2.176 3.32 3.844C3213 492 3213 492 3213 494h2v2l1.68.789c2.613 1.364 4.994 2.949 7.445 4.586 14.181 9.01 30.358 11.826 46.917 8.175 22.302-5.657 41.737-20.672 55.958-38.55 3.448 1.5 5.824 3.504 8.563 6.063a215.47 215.47 0 0 0 10.813 9.313c6.121 4.947 11.875 10.257 17.625 15.625-1.652 4.07-4.531 6.98-7.5 10.125l-1.627 1.737L3350 519l-2.629 2.758c-9.486 9.715-20.051 17.801-31.371 25.242l-2.789 1.84c-13.41 8.329-28.846 13.772-44.211 17.16l-2.816.645c-34.064 6.735-73.274 1.231-102.4-18.229-28.011-19.423-48.881-46.494-55.534-80.353-6.239-34.956 1.092-69.766 21.25-99 9.492-13.183 21.713-24.513 35.5-33.062l3.363-2.102c15.872-9.374 34.457-14.548 52.637-16.898l3.535-.555c6.432-.787 12.932-.644 19.402-.633zM3428 636c1.98-.367 1.98-.367 4.434-.356l2.781-.009 3.008.037 3.078.006 6.448.041 9.909.047 6.252.031 3.014.013 2.771.029 2.451.021C3474 636 3474 636 3475 637l.114 7.641v2.424l-.016 7.97-.004 5.511-.025 14.535-.022 17.423L3475 719h78v52c-3.962.991-7.086 1.121-11.155 1.114h-2.159l-7.045-.016-4.893-.004-12.862-.025-13.131-.02L3476 772l-.104 41.231-.047 19.148-.039 18.499-.022 7.037-.016 9.9-.022 2.901c.032 10.556.582 22.275 8.249 30.283 14.059 8.71 30.571 10.341 46.557 6.819 9.924-2.506 18.808-6.667 27.568-11.901C3560 895 3560 895 3563 895v52c-19.153 8.379-34.996 14.216-55.562 16.438l-2.346.254c-11.856 1.249-23.585 1.978-35.467.558l-3.961-.422c-11.269-1.765-21.318-5.687-31.244-11.154l-5.448-2.922c-14.474-7.771-23.765-17.432-29.973-32.752-4.186-14.158-3.48-29.059-3.506-43.671l-.06-10.718-.095-20.217-.116-23.05L3395 772l-2.998.016-10.992.039-4.761.021-6.836.022-2.156.016c-5.03.001-5.03.001-7.258-1.113v-47l11-5c14.541-6.678 24.198-14.452 33.677-27.239 1.25-1.664 2.535-3.29 3.842-4.909 10.501-13.271 14.763-28.841 16.988-45.461C3426 639 3426 639 3428 636zm1045.563-428.187l3.635.041L4486 208l.003 1.904.226 111.68.033 13.406.007 2.696.081 43.23.098 44.349.051 27.371.046 18.763.019 10.829.036 11.738-.015 3.461c.05 5.539.094 9.884 3.413 14.574 4.002 1.912 7.881 2.328 12.273 2.633l3.154.231 3.948.261L4522 516v47h-150v-47l16.573-1.046 3.154-.223 3.206-.206c3.509-.599 6.028-1.686 9.068-3.524 3.284-6.882 3.15-14.781 3.158-22.27l.015-2.765.032-9.139.03-6.565.068-17.8.076-18.61.131-33.229.118-30.159.008-2.004.041-9.953L4408 276h-36v-48l10.688-1.125a308.54 308.54 0 0 0 65.456-14.895L4451 211l1.771-.745c6.914-2.699 13.448-2.601 20.792-2.442zm1516.937 0l3.648.041L6003 208l.003 1.904.226 111.68.033 13.406.007 2.696.081 43.23.098 44.349.051 27.371.046 18.763.019 10.829.036 11.738-.015 3.461c.05 5.539.094 9.884 3.413 14.574 4.002 1.912 7.881 2.328 12.273 2.633l3.154.231 3.948.261L6039 516v47h-150v-47l16.573-1.046 3.154-.223 3.206-.206c3.506-.599 6.027-1.694 9.068-3.524 3.611-7.222 3.149-16.513 3.158-24.434l.015-2.746.032-9.037.03-6.506.068-17.614.076-18.426.138-34.87.16-39.707L5925 276h-36v-48l10.688-1.125c24.139-2.801 50.44-7.102 72.646-17.425 5.902-2.219 11.95-1.771 18.167-1.638z"/><path d="M2795.875 712.75l3.203.016c7.767.08 7.767.08 8.922 1.234l.316 7.098.063 2.148.183 6.817.131 4.611L2809 746l1.725-1.769c4.539-4.606 9.093-8.969 14.213-12.919l1.646-1.314c8.844-6.906 17.483-11.106 28.354-13.936l3.342-.955c12.026-3.214 21.757-2.026 32.721 3.893 11.27 6.744 15.048 15.85 18.902 27.797 2.792 11.166.502 22.233-4.902 32.203-5.463 8.64-12.869 15.574-23 18-11.983 2.314-23.519-.411-34.875-4.25-9.778-3.115-16.495-.976-25.656 3.191C2819 797 2819 797 2817 797l.236 41.542.111 19.29.117 18.615.034 7.102.07 9.947-.004 2.967c.072 5.224.404 9.072 3.437 13.537 3.936 1.871 7.738 2.321 12.055 2.633l3.031.231 3.79.261L2852 914v47l-58.23.052-27.035.024-23.555.019-12.48.012-11.733.007-4.319.006-5.871.001-3.327.003C2703 961 2703 961 2702 960a64.36 64.36 0 0 1-.129-4.32l-.01-2.781.006-3.024-.003-3.083.005-6.466-.006-9.936.004-6.266-.006-3.024.01-2.781.002-2.46C2702 914 2702 914 2703 913a125.42 125.42 0 0 1 5.863-.246l3.627-.1 7.609-.172 3.639-.104 3.345-.076c2.944-.306 4.447-.734 6.917-2.303 3.737-6.298 3.411-13.873 3.341-20.946l.001-3.521-.049-11.443-.013-7.965-.064-18.773-.065-21.388L2737 782l-2.998.032-10.992.078-4.761.041-6.836.044-2.156.031c-1.754 0-3.508-.105-5.258-.227-2.424-2.424-2.252-3.011-2.259-6.326l-.019-2.71.012-2.932-.006-3.004.011-6.295-.013-9.659.008-6.105-.012-2.932.019-2.71.005-2.391C2702 735 2702 735 2704 733c2.033-.407 2.033-.407 4.566-.641l2.871-.296 3.125-.314c21.955-2.505 45.985-7.505 65.875-17.473 5.157-1.849 10.007-1.636 15.438-1.527zm493.707.02l3.341.05 8.077.18.01 2.914.277 70.208.134 33.952.121 29.595.061 15.668.064 14.754.017 5.408.037 7.401-.006 2.146c.056 4.989.733 9.237 2.284 13.953 6.483 3.833 13.565 3.506 20.938 3.625l6.777.164 3.004.053C3337 913 3337 913 3338 914v47h-151c-.687-3.436-1.126-5.927-1.129-9.3l-.01-2.467.006-2.62-.003-2.722.005-5.676-.006-8.71.004-5.518-.006-2.639c.024-6.119.024-6.119 1.139-8.349l2.507-.06 11.243-.315 3.945-.094 3.789-.117 3.491-.095c3.829-.39 3.829-.39 7.024-2.319 2.686-5.754 2.267-11.672 2.227-17.88l.001-3.609-.025-9.755-.016-10.21-.043-19.315-.043-21.998L3221 782h-33c-1.776-3.553-2.251-4.527-2.259-8.17l-.019-2.457.012-2.627-.006-2.719.011-5.681-.013-8.703.008-5.521-.012-2.633.019-2.448.005-2.15C3186 737 3186 737 3188 734c2.524-.537 2.524-.537 5.73-.773l3.588-.302 3.869-.299c12.313-1.112 24.189-3.004 36.202-5.981l7.623-1.796c7.202-1.712 13.774-3.602 20.376-6.996 8.301-4.202 14.858-5.352 24.194-5.082zm1953.293-396.957l3.531.041L5255 316l.007 2.948.228 71.008.111 34.339.102 29.93.049 15.848.057 14.919.011 5.472.036 7.481-.015 2.178c.071 5.053 1.022 8.502 3.413 12.876 6.616 2.741 13.917 2.43 21 2.625l12 .375v47h-151c-.688-3.441-1.126-5.937-1.129-9.315l-.01-2.477.006-2.63-.003-2.729.005-5.688-.006-8.743.004-5.527-.006-2.654c.024-6.121.024-6.121 1.139-7.236 1.551-.145 3.107-.227 4.664-.281l2.902-.113 3.059-.105c11.201.156 11.201.156 21.375-3.5 2.764-5.64 2.307-11.743 2.319-17.88l.03-3.609.055-9.755.068-10.21.117-19.315.138-21.998L5176 384h-35c-1.125-7.877-1.125-7.877-1.129-11.359l-.01-2.355.006-2.466-.003-2.586.005-5.37-.006-8.255.004-5.227-.006-2.503c.024-5.765.024-5.765 1.139-6.88 2.023-.277 4.054-.495 6.086-.691 15.383-1.599 30.45-3.744 45.539-7.184l2.166-.481c10.668-2.39 22.385-5.155 31.61-11.224 5.44-2.147 10.686-1.735 16.474-1.608zM2039.512 712.797l3.357.044L2051 713l.01 2.895.277 69.784.134 33.747.121 29.418.061 15.573.064 14.668.017 5.373c-.183 12.447-.183 12.447 2.316 24.542 6.511 4.008 14.033 3.543 21.5 3.688l12.5.313v48l-58.621.052-27.217.024-23.713.019-12.564.012-11.812.007-4.348.006-5.911.001-3.349.003C1938 961 1938 961 1937 960a64.36 64.36 0 0 1-.129-4.32l-.01-2.781.006-3.024-.003-3.083.005-6.466-.006-9.936.004-6.266-.006-3.024.01-2.781.002-2.46C1937 914 1937 914 1938 913a124.48 124.48 0 0 1 5.828-.211l3.613-.086 7.57-.133 3.629-.094 3.329-.06c3.492-.48 5.315-1.167 8.03-3.417 2.698-5.703 2.267-11.621 2.227-17.789l.001-3.579-.025-9.674-.016-10.126-.043-19.156-.043-21.816L1972 782l-2.998.016-10.992.039-4.761.021-6.836.022-2.156.016c-5.03.001-5.03.001-7.258-1.113v-46c2.545-1.272 4.606-1.294 7.449-1.508 13.603-1.142 26.748-2.86 40.051-5.93l3.803-.874c15.832-3.704 15.832-3.704 30.509-10.439 7.029-3.462 12.939-3.65 20.699-3.453z"/></g><path fill="#bd353c" d="M3995 690h24v293h-25l-.051-111.113-.004-13.106-.001-2.636-.021-42.297-.017-43.372-.014-26.782-.006-18.343-.006-10.597-.001-11.467-.009-3.413.006-3.084-.001-2.676C3994 692 3994 692 3995 690z"/><g fill="#fff"><path d="M1516 1198h22c33 69.026 33 69.026 33 78h2l.75-3.832c1.234-5.509 3.144-10.626 5.25-15.855l1.262-3.152c7.687-18.754 16.676-37.038 25.738-55.161h22v137h-16v-116l-13 29-9.07 18.176c-3.558 7.022-6.928 14.131-10.278 21.253-2.36 4.991-4.837 9.821-7.652 14.571-2.444-3.042-4.15-6.126-5.828-9.645l-1.652-3.444-1.77-3.724-1.852-3.87-2.904-6.069-6.97-14.427-1.976-4.059-2.832-5.808c-4.995-10.219-9.59-20.546-14.216-30.953v115h-16v-137zm1850 0c67.809 0 67.809 0 77.051 8.742 6.433 7.451 7.147 16.029 7.199 25.445l.063 2.752c.05 8.8-1.594 16.091-7.703 22.623-3.786 3.382-7.739 4.534-12.609 5.438l1.906.445c7.675 2.011 13.545 4.507 17.887 11.402 6.264 12.007 6.911 25.112 3.207 38.152-4.009 10.11-9.088 16.341-19 21-21.506 7.169-45.331 1-68 1v-137zm16 14v45l18.563.188 5.819.083 4.623.023 2.378.047c5.855.003 10.729-.91 15.36-4.804 4.532-5.892 4.464-10.673 4.508-17.848l.063-2.514c.041-6.52-1.01-11.236-5.125-16.486-5.205-4.015-10.813-3.964-17.086-3.883l-2.245.006-8.231.064L3382 1212zm0 59v50l20.063.188 6.293.083 4.992.023 2.574.047c6.83.003 11.491-1.212 16.891-5.652 4.819-5.92 4.524-12.334 4.5-19.625l.049-2.92c.005-7.378-.781-12.442-6.049-17.955-6.386-4.217-12.983-4.48-20.406-4.383l-2.239.006-8.167.064-18.5.125zM5242.754 217.023c9.703 8.539 16.499 18.851 17.465 31.941.394 13.796-2.91 24.941-12.254 35.289-9.283 8.878-20.596 13.487-33.34 14.059-14.145-.376-25.029-6.299-34.625-16.312-8.941-11.227-11.201-22.839-10-37 2.25-12.212 9.892-22.897 20-30 16.445-9.995 37.176-9.999 52.754 2.023zM3291.016 616.195L3293 618v2h2c9.207 11.724 12.23 23.391 11 38-1.456 8.401-5.505 16.482-11 23h-2v2c-9.064 8.437-20.694 12.811-33 13-12.14-.686-23.575-4.99-32-14-9.14-10.622-12.544-21.213-12.309-35.184.987-12.209 6.843-21.832 15.621-30.129 17.983-15.139 41.435-14.167 59.703-.492zm-1256.118-4.5c10.501 7.106 18.332 16.781 21.102 29.305.828 16.202-.728 28.695-12.035 41.262-9.304 8.865-20.144 13.312-32.965 13.738-14.343-.809-24.942-6.39-34.75-16.75-8.943-10.648-10.086-22.576-9.468-35.878.998-10.868 7.289-20.042 15.229-27.181 15.264-12.025 35.906-14.428 52.887-4.496zm412.114 608.207l2.295.01 2.381.025 2.416.014 5.896.049v14h-17c1.562 4.685 2.188 6.557 4.938 10.125 6.271 9.138 7.25 20.178 5.594 30.914-1.894 8.905-5.254 15.888-12.719 21.336-8.88 5.293-17.421 5.989-27.531 5.515-4.657-.161-7.473.096-11.281 3.11-2.409 2.972-3.026 4.336-2.875 8.188.645 3.114.645 3.114 3.875 4.813a97.48 97.48 0 0 0 7.598.344l2.269.044 7.195.112c27.529.365 27.529.365 35.938 6.5 7.23 7.519 8.485 15.014 8.305 25.234-.588 7.269-2.634 12.559-7.93 17.641-10.445 8.206-23.824 9.512-36.687 9.438l-3.031-.013c-10.87-.165-24.357-.831-32.398-9.089-4.944-6.126-6.952-12.294-6.258-20.211 1.366-5.582 3.467-9.311 8-13 3.313-1.812 3.313-1.812 6-3-1.234-3.703-3.233-5.303-6-8-2.093-4.186-1.424-9.441-1-14 2.274-4.897 5.248-7.478 10-10 2.875-.25 2.875-.25 5 0l-2-1.937-3-3.062-2.008-2.02c-8.249-8.69-9.992-17.109-9.992-28.98.802-10.324 3.444-18.315 11.082-25.465 8.958-7.17 19.784-8.451 30.918-7.535 3.438.76 6.709 1.752 10 3l.078-1.828c.466-6.564.466-6.564 2.797-9.672 3.049-2.152 5.501-2.625 9.137-2.598zM2403.125 1250c-3.762 5.311-3.341 10.042-3.375 16.313l-.062 2.842c-.03 5.385.257 9.208 3.313 13.846 4.538 4.416 9.12 6.065 15.375 6.313 6.326-.181 10.851-1.654 15.5-6 5.221-8.138 4.959-17.739 3.625-27.062-1.311-5.281-5.018-8.409-9.5-11.25-8.513-2.97-18.795-1.944-24.875 5zm-8.125 89c-2.8 4.361-2.658 8.978-2 14 1.654 3.442 1.654 3.442 4 6l1.313 1.75c5.82 4.311 13.705 3.551 20.563 3.5l3.145.023c8.821-.022 16.96-.423 23.98-6.273 3.58-3.939 3.571-8.228 3.406-13.336-.672-4.405-1.931-5.84-5.406-8.664-5.574-1.721-10.671-2.328-16.48-2.371l-2.351-.027-4.878-.027-7.445-.112-4.764-.021-2.232-.059c-5.362.047-7.541 1.487-10.85 5.618zm1370.23-119.098l2.432.01 2.525.025 2.561.014 6.252.049v14h-18c1.797 5.39 2.987 7.553 6.465 11.582 4.089 6.44 5.07 13.292 4.973 20.793l-.025 2.513c-.26 9.48-2.56 17.331-9.221 24.323-9.761 7.969-19.614 9.026-31.646 8.574-4.703-.087-7.739.121-11.545 3.215-2.136 3.204-2.231 4.019-2.125 7.688l.055 2.449.07 1.863c3.771 1.19 7.526 1.187 11.441 1.246l4.459.1 6.963.131c26.872.481 26.872.481 35.668 9.008 5.91 6.666 6.356 13.928 6.469 22.516-.536 7.717-3.958 14.445-9.785 19.57-13.888 9.525-35.49 9.129-51.551 6.934-9.838-1.889-16.834-5.273-22.664-13.504-3.221-6.611-3.1-14.578-.875-21.5 3.548-4.731 7.385-7.461 12.875-9.5l1-2-1.75-.687c-3.811-2.223-5.869-5.17-7.25-9.312-.527-6.219.137-10.932 4-16 2.265-1.777 4.346-2.768 7-4l4-2-1.574-1.066c-7.175-5.079-11.634-10.259-13.918-18.871-1.956-11.799-1.457-23.942 4.895-34.363 5.004-6.496 12.645-10.641 20.613-12.344 9.207-1.097 17.187-.265 25.984 2.645l-.25-3.687c-.006-3.344.222-4.267 2.063-7.25 3.033-2.86 5.411-3.189 9.418-3.16zM3723 1248c-4.816 5.927-5.199 10.887-5.25 18.313l-.062 2.225c-.046 6.529 1.409 11.083 5.563 16.275 5.481 4.36 11.966 4.957 18.75 4.188 5.839-1.849 10.166-4.57 13.113-10.082 1.246-4.099 1.255-7.969 1.262-12.23l.074-2.475c.028-5.831-1.054-10.394-4.449-15.213-8.248-6.565-20.382-7.77-29-1zm-10 91c-2.309 4.825-2.401 9.779-.937 14.875 1.566 3.878 3.228 6.017 6.938 8.125 6.279 2.319 12.23 2.299 18.875 2.25l3.145.023c8.647-.022 17.216-.314 23.98-6.273 2.694-4.759 3.593-8.563 3-14-1.312-3.591-2.33-5.488-5.375-7.812-7.16-3.239-15.345-2.482-23.053-2.538l-5.013-.082-7.274-.091-2.245-.069c-5.814.024-8.135 1.592-12.04 5.592zm-801-104c4.491 3.99 7.66 8.493 10 14a145.24 145.24 0 0 0 3.688-5.812c4.8-6.616 10.182-10.699 18.313-12.187 9.315-.947 17.227-.056 24.996 5.402 6.792 5.974 9.809 14.832 11.004 23.598a213.98 213.98 0 0 1 .114 7.566v2.219l-.016 7.207-.004 5.019-.025 13.168-.02 13.454L2980 1335h-16l-.044-6.558-.192-21.529-.111-13.044-.117-12.605-.034-4.792c.123-13.994.123-13.994-5.752-26.408-5.546-4.159-10.746-4.417-17.391-3.531-6.442 1.28-9.635 4.362-13.359 9.469-1.167 3.5-1.175 6.674-1.205 10.317l-.03 2.248-.081 7.353-.063 5.099-.153 13.42-.161 13.694L2925 1335h-16l-.044-6.359-.192-20.895-.111-12.658-.117-12.235-.034-4.647c-.043-9.617-.274-18.587-5.19-27.144-4.805-4.285-9.497-5.359-15.875-5-5.117.673-8.347 1.765-12.437 4.938-4.405 5.792-5.12 11.066-5.205 18.155l-.03 2.159-.081 7.045-.063 4.893-.153 12.862-.161 13.131L2869 1335h-16l-.052-39.454-.024-18.318-.019-17.662-.011-6.755-.008-9.426-.011-2.851c.01-6.42.01-6.42 1.124-7.534 2.533-.073 5.031-.092 7.563-.062l7.438.063v17h2l.336-2.215c1.228-5.152 4.308-9.922 8.477-13.219 9.606-5.652 22.751-5.504 32.188.434zm-1655-37c64.027 0 64.027 0 75 10l1.793 1.449c12.258 10.743 15.575 28.897 16.957 44.363l.25 6.188.121 3.02c.449 21.013-1.936 44.231-16.684 60.293C1313.872 1342.88 1282.696 1335 1257 1335v-137zm17 14v109c26.438 1.952 26.438 1.952 48.777-8.648 9.204-9.534 10.365-21.51 10.426-34.203l.017-2.836.02-5.925.072-8.946c.084-14.974-.072-28.776-11.012-40.219-13.417-12.332-30.583-8.223-48.301-8.223zm1791.371 23.371c11.56 8.129 15.338 20.061 18.215 33.332 2.533 20.166 1.137 41.739-11.246 58.551-5.887 6.444-14.027 10.194-22.664 10.949-7.776.154-14.382-1.09-20.988-5.328C3026 1330 3026 1330 3021 1321l-1 54h-16v-142h16l1 15 1.563-3.625c2.921-5.791 7.161-9.573 13.063-12.25 9.679-3.151 21.002-1.81 29.746 3.246zM3023 1253c-3.723 5.584-3.468 10.982-3.469 17.461l-.023 3.347-.009 6.995-.085 10.658-.008 6.813-.05 3.198c.063 6.745 1.189 11.342 5.643 16.528 6.149 4.795 13.68 6.583 21.352 5.742 6.959-1.28 12.194-4.316 16.559-10.031 5.156-8.098 4.584-17.377 4.535-26.594l.052-7.437c.045-10.106-.227-19.554-6.998-27.68l-2.5-2-1.875-1.687c-10.671-6.591-24.631-4.008-33.125 4.688zm-1216.348-47.816c4.148 3.986 6.924 7.561 9.348 12.816l-5.312 4.063-2.988 2.285-2.7 1.652c-3.714-1.238-4.774-2.852-7-6v-2l-1.562-.75c-2.622-1.344-5.133-2.828-7.656-4.348-7.379-3.738-18.989-3.034-26.824-1.184-5.356 2.225-8.497 5.245-11.031 10.516-2.197 6.563-2.174 15.033.699 21.391 2.475 4.676 7.075 6.887 11.863 8.684l3.824 1.129 2.084.629 11.076 3.188c12.543 3.529 25.201 7.209 32.34 18.996 5.766 11.381 5.595 24.963 2.152 37.035-3.216 9.05-9.535 16.059-18.191 20.293-5.503 2.201-10.821 4.103-16.773 4.422l-2.746.188c-13.06.512-25.614-2.381-36.254-10.187l-1.727-1.215c-4.089-3.114-7.832-7.244-10.273-11.785 1.26-3.781 2.935-4.773 6.063-7.187l2.785-2.168L1740 1304l2.063 2.063 1.395 1.379c1.06 1.071 2.098 2.163 3.117 3.273 6.208 6.613 13.031 10.943 22.184 11.523 13.331.383 13.331.383 24.883-5.664 5.618-6.248 6.257-13.507 6.359-21.574-.521-6.351-2.243-10.553-7-15-7.953-4.618-16.627-6.53-25.471-8.824-10.926-2.966-23.815-7.441-30.029-17.637-5.468-10.595-6.072-22.262-3.852-33.953 2.852-8.654 8.378-15.038 16.246-19.559 17.617-8.596 41.384-7.5 56.758 5.156zm182.098.691c3.37 3.04 5.851 6.272 8.25 10.125v3c-2.187 1.824-2.187 1.824-5 3.688l-2.812 1.887L1987 1226c-3.345-1.411-5.036-3.027-7.25-5.875-4.231-5.024-9.988-8.648-16.676-9.318-14.44-.879-14.44-.879-27.074 5.193-4.609 5.469-5.326 11.763-5.211 18.66.487 5.398 2.08 9.126 5.773 13.09 6.973 5.133 15.934 7.016 24.188 9.063 11.682 3.061 24.947 6.769 32.25 17.188 6.231 11.328 7.236 26.211 3.875 38.688-3.879 10.23-10.455 16.818-20.187 21.563-13.228 5.427-28.23 5.185-41.687.75-9.015-3.775-18.96-10.384-24-19 .053-2.979.958-3.954 2.996-6.141l2.441-2.109 2.434-2.141C1921 1304 1921 1304 1923 1304c1.238 1.502 2.415 3.053 3.563 4.625 5.646 7.221 11.468 11.299 20.438 13.375 10.828 1.184 20.098.619 28.875-6.25 5.849-7.569 5.931-15.479 5.125-24.75-1.14-5.161-3.817-8.821-8-12-7.515-3.663-15.536-5.735-23.562-7.937-12.829-3.557-24.293-7.697-31.75-19.437-5.029-10.802-5.116-22.938-1.602-34.254 3.286-8.524 9.992-14.247 17.914-18.371 18.091-7.535 39.405-5.473 54.75 6.875zM2289 1189h16l1 60 5-10c7.71-6.853 14.187-8.493 24.457-8.309 7.629.665 13.82 3.43 19.008 9.121 6.139 8.747 7.667 18.306 7.649 28.775v2.19l-.016 7.093-.004 4.947-.025 12.966-.02 13.253L2362 1335h-16l-.028-6.542-.156-21.493-.087-13.021-.097-12.585-.024-4.781c.044-14.626.044-14.626-6.921-27.077-6.591-3.679-12.432-4.055-19.687-2.5-5.828 1.929-9.101 4.434-12 10-1.25 3.706-1.159 7.361-1.205 11.247l-.03 2.189-.081 7.142-.063 4.96-.153 13.04-.161 13.312L2305 1335h-16v-146zm-272 0h16l1 60 5-10c7.71-6.853 14.187-8.493 24.457-8.309 7.629.665 13.82 3.43 19.008 9.121 6.139 8.747 7.667 18.306 7.649 28.775v2.19l-.016 7.093-.004 4.947-.025 12.966-.02 13.253L2090 1335h-16l-.028-6.542-.156-21.493-.087-13.021-.097-12.585-.024-4.781c.044-14.626.044-14.626-6.921-27.077-6.591-3.679-12.432-4.055-19.687-2.5-5.828 1.929-9.101 4.434-12 10-1.25 3.706-1.159 7.361-1.205 11.247l-.03 2.189-.081 7.142-.063 4.96-.153 13.04-.161 13.312L2033 1335h-16v-146zm714.191 14.531c6.857 5.517 11.565 12.942 13.809 21.469l-4.25 2.875-2.391 1.617A56.23 56.23 0 0 1 2732 1233l-1.285-2.633c-4.355-8.557-7.995-14.936-17.402-18.242-10.572-2.699-20.184-1.594-29.625 3.75-8.69 6.871-12.202 17.178-13.482 27.89-.354 3.853-.368 7.697-.373 11.563l-.01 2.637-.007 5.496-.039 8.3c-.05 15.367.499 29.565 10.225 42.238 7.471 6.881 15.033 8.34 24.871 8.207 7.604-.503 13.645-2.62 19.234-7.891 3.775-4.616 6.32-9.967 8.895-15.316 4.444 2.172 8.8 4.375 13 7-1.245 8.235-6.871 16.431-13 22-11.946 8.659-25.112 11.367-39.684 9.691-12.414-2.188-22.274-8.102-29.723-18.293-8.393-12.631-11.709-27.603-11.797-42.648l-.017-2.351-.02-4.911-.072-7.359c-.137-20.367 3.531-40.761 18.102-56 16.422-15.035 43.626-15.019 61.402-2.598zm802.629 33.317c10.726 8.821 15.669 22.319 17.059 35.898.273 5.076.375 10.176.121 15.254-1 1-1 1-3.55 1.12l-3.439-.007h-3.883l-4.227-.016-4.3-.004-11.339-.025-11.562-.02-22.7-.048.398 6.625.224 3.727c.711 6.873 2.43 13.288 7.565 18.148 6.466 4.77 13.887 6.471 21.813 5.5 6.469-1.264 11.403-3.083 16-8 1.848-2.917 3.475-5.903 5-9 2.791 1.321 5.258 2.804 7.75 4.625l1.859 1.352L3548 1313c-.435 6.954-5.934 12.198-10.75 16.75-8.908 7.475-19.964 9.058-31.25 8.25-10.664-1.727-19.538-5.245-26.437-13.773-11.471-16.347-12.842-38.319-9.5-57.539 2.641-12.304 8.071-23.949 18.941-30.984 13.485-7.283 31.88-7.33 44.816 1.145zm-41.352 14.41c-6.444 7.643-6.469 14.924-6.469 24.742h48c.008-14.62.008-14.62-7.414-26.633-9.77-8.423-25.045-6.711-34.117 1.891zm-1320.648-14.41c10.726 8.821 15.669 22.319 17.059 35.898.273 5.076.375 10.176.121 15.254-1 1-1 1-3.55 1.12l-3.439-.007h-3.883l-4.227-.016-4.3-.004-11.339-.025-11.562-.02-22.7-.048.398 6.625.224 3.727c.711 6.873 2.43 13.288 7.565 18.148 6.466 4.77 13.887 6.471 21.813 5.5 6.469-1.264 11.403-3.083 16-8 1.848-2.917 3.475-5.903 5-9 2.791 1.321 5.258 2.804 7.75 4.625l1.859 1.352L2186 1313c-.435 6.954-5.934 12.198-10.75 16.75-8.908 7.475-19.964 9.058-31.25 8.25-10.664-1.727-19.538-5.245-26.437-13.773-11.471-16.347-12.842-38.319-9.5-57.539 2.641-12.304 8.071-23.949 18.941-30.984 13.485-7.283 31.88-7.33 44.816 1.145zm-41.352 14.41c-6.444 7.643-6.469 14.924-6.469 24.742h48c.008-14.62.008-14.62-7.414-26.633-9.77-8.423-25.045-6.711-34.117 1.891zm685.407-14.695c7.045 5.179 10.096 12.068 11.708 20.429.797 5.757.659 11.527.612 17.328l-.009 4.06-.049 10.584-.04 10.841L2828 1321h10v14l-8.687.188-2.475.076c-4.761.058-8.026-.069-11.838-3.264-2.031-3.917-3.339-7.639-4-12l-1.5 3.563c-3.358 6.621-8.322 11.002-15.375 13.375-8.899 2.187-17.641 1.626-26.125-1.937-7.394-4.57-10.647-10.703-12.75-18.937-.892-10.927-.203-20.534 7.035-29.312 7.719-7.878 18.305-9.887 29.012-10.043l7.453.105 3.883.041 9.367.146c-.22-12.862-.22-12.862-4-25l-1-3c-2.376-1.184-2.376-1.184-5-2l-3-1c-9.331-.61-15.886-.449-23.687 4.813-2.624 2.482-4.428 5.117-6.312 8.188-4.417-1.388-7.083-3.397-10-7 .653-5.269 4.066-9.443 8.086-12.68 14.547-9.979 33.125-12.004 48.789-2.758zm-40.875 58c-3.289 4.008-3.245 7.169-3.312 12.188l-.088 2.133c-.062 5.147.965 8.068 4.4 12.117 5.134 3.565 11.989 3.837 18 3 7.539-2.226 12.643-6.464 17-13 .941-2.824 1.117-4.529 1.098-7.449l-.01-2.568-.025-2.67-.014-2.705L2812 1289l-11.937-.187-3.385-.076c-8.206-.072-15.261.345-21.678 5.826zm894.098-56.215c6.986 6.068 9.469 13.954 10.162 23.066.085 3.816.079 7.625.033 11.442l-.013 4.19-.074 10.914-.06 11.183L3679 1321h10v14l-8.187.188-2.33.076c-4.697.06-7.634-.271-11.482-3.264-3.1-3.215-3.931-6.724-5-11l-.848 1.539c-4.365 7.496-9.272 12.559-17.766 14.996-8.7 1.694-17.896.684-25.637-3.723-5.712-3.868-9.199-9.091-10.75-15.812-1.645-9.852-1.456-19.726 4.461-28.152 5.262-6.317 10.513-9.974 18.539-11.848l2.223-.526c3.179-.543 6.165-.587 9.391-.572l3.779.01 3.92.025 3.979.014 9.709.049-.312-8.5-.068-2.398c-.253-5.61-1.255-9.986-3.619-15.102-7.084-5.755-14.177-5.811-23-5-7.57 2.157-11.963 6.387-16 13-3.923-1.825-6.738-4.183-10-7 1.274-6.369 5.058-10.098 10-14 15.138-9.067 34.278-10.613 49.098.348zM3626 1294.563c-3.293 4.013-3.189 6.513-3.25 11.688l-.078 3.953c.348 4.025 1.206 6.388 3.328 9.797 5.755 4.28 12.021 4.747 19 4 7.402-2.253 13.333-5.985 17.169-12.863 1.587-4.08 1.243-8.261 1.081-12.575l-.055-2.795L3663 1289l-11.937-.187-3.385-.076c-8.206-.072-15.261.345-21.678 5.826zm219.352-59.239c7.211 5.145 11.779 10.991 13.648 19.676.395 5.11.351 10.197.293 15.316l-.013 4.401-.074 11.496-.06 11.765L3859 1321l2.152-.035 2.785-.027 2.777-.035C3869 1321 3869 1321 3870 1322a153.02 153.02 0 0 1 .063 6.563l-.027 3.629L3870 1335l-8.625.25-2.449.102c-5.5.089-8.555-.691-12.926-4.352-2.805-3.57-2.145-7.66-2-12h-2l-.125 2a23.11 23.11 0 0 1-10.312 13.375c-10.635 4.851-19.573 4.63-30.566.953-5.696-2.525-9.273-6.328-11.871-11.953-3.253-9.759-3.835-20.748.625-30.195 4.524-7.888 10.388-12.008 19.068-14.755 7.18-1.897 14.368-1.648 21.745-1.55l3.924.027 9.514.098c.027-14.153.027-14.153-5.426-26.684-5.686-4.981-11.643-4.736-18.832-4.59-6.87.502-10.668 2.825-15.18 7.898-1.423 1.775-2.544 3.339-3.562 5.375-3.193-.584-4.976-1.501-7.312-3.75l-1.613-1.484c-1.074-1.766-1.074-1.766-.934-4.219 2.153-6.382 7.909-11.257 13.645-14.516 12.301-5.728 28.486-6.51 40.566.293zm-39.414 59.613c-3.64 5.754-3.952 12.516-2.477 19.129 1.697 4.622 4.307 6.641 8.539 8.934 7.031 2.344 13.974 1.371 20.668-1.602 4.877-2.925 8.247-6.913 10.512-12.102 1.03-4.138 1.039-7.93.945-12.172l-.027-2.375-.098-5.75-11.875-.187-3.359-.076c-12.544-.115-12.544-.115-22.828 6.201zM3102 1233l7.438-.062 2.143-.025 5.42.088c1.899 1.899 1.145 5.26 1.158 7.78l.015 2.149.026 4.637.053 7.354.149 20.916.101 12.783.026 4.862c-.5 12.88-.5 12.88 4.888 24.055 5.433 4.81 10.325 4.808 17.279 4.746 5.851-.498 9.527-2.55 13.68-6.594 3.29-5.441 3.879-10.924 3.944-17.183l.03-2.161.065-6.996.059-4.88.128-12.788.141-13.072L3159 1233h15v102h-15v-16h-2l-.125 2c-1.632 5.596-5.31 9.707-9.75 13.375-8.117 4.221-16.522 4.787-25.312 2.375-8.341-2.81-12.702-7.1-16.812-14.75-3.852-9.418-3.388-19.164-3.293-29.137l.013-5.199.074-13.577.06-13.897.145-27.19zm-844 4c4.397 3.339 7.505 6.01 10 11l-9 8c-3.778-1.889-6.7-3.985-10-6.562-4.585-3.295-8.266-3.802-13.875-3.812l-2.105-.074c-5.168-.029-8.081 1.153-12.02 4.449-2.694 4.759-3.593 8.563-3 14 1.636 4.253 3.187 6.563 7 9 2.487.864 2.487.864 5.25 1.438l3.195.758 5.515 1.229c20.999 4.571 20.999 4.571 27.04 13.45 5.122 9.52 4.823 18.996 2.027 29.227-2.68 7.56-7.45 11.893-14.391 15.711-12.136 5.466-25.737 3.893-37.891-.656-6.482-2.943-13.076-7.981-16.746-14.156.098-2.817.867-3.851 2.742-5.957l2.133-1.855 2.117-1.895L2208 1309c3.415 1.138 3.938 1.973 6.063 4.75 4.891 5.665 9.918 8.739 17.41 9.691 6.796.225 13.124.083 18.527-4.441 3.43-4.395 3.516-8.976 3.348-14.375-.503-3.796-1.724-5.863-4.348-8.625-4.889-2.918-9.615-3.875-15.125-4.875-11.245-2.248-20.973-4.493-28.383-13.887-4.606-6.909-4.185-15.214-3.492-23.238 1.581-7.527 4.597-13.55 11-18 13.935-7.12 31.569-7.576 45 1zm993.984 1.371c2.913 2.354 5.467 4.885 8.016 7.629-1.382 3.21-2.924 5.049-5.625 7.25l-1.914 1.578L3251 1256c-3.657-1.664-6.2-3.851-9.121-6.562-4.515-3.454-8.735-3.733-14.316-3.75l-3.871-.051c-3.947.388-6.337 1.287-9.691 3.363-3.852 5.136-3.64 10.848-3 17 .962 3.23 1.884 4.34 4.758 6.039 5.696 2.6 11.64 3.705 17.742 4.898 9.547 1.892 18.191 4.068 24.316 12.207 4.993 7.828 5.03 15.767 4.184 24.855-1.781 7.897-6.2 14.709-12.914 19.313-11.159 6.046-24.193 6.085-36.199 2.727-7.717-2.778-14.882-7.456-19.887-14.039l-2-5 10-8c3.637 2.909 6.737 5.737 10 9 5.044 4.393 10.437 5.291 17 5.313l3.563.051c5.025-.531 8.284-2.147 11.75-5.801 2.931-4.451 3.13-8.247 2.688-13.562-.774-3.185-1.842-5.516-4-8-6.571-3.957-14.991-5.012-22.454-6.431-7.903-1.586-14.85-4.743-20.546-10.569-5.03-7.81-5.798-17.152-4.437-26.187 1.747-7.243 5.997-13.794 12.344-17.816 14.405-6.853 32.11-5.932 45.078 3.375zM5002 900h12c2.362 6.722 4.14 13.43 5.699 20.379l.727 3.19 2.261 9.994 1.549 6.814L5028 957l8.636-42.923 1.13-5.944.649-3.441C5039 902 5039 902 5040 900h13l12 56c1.285-3.856 2.381-7.352 3.237-11.271l.667-3.032.698-3.22.731-3.337 2.292-10.514 1.563-7.145L5078 900h13c-3.447 16.062-7.348 32.015-11.228 47.977l-2.635 10.863L5072 980h-13l-1.086-4.849-3.986-17.74-1.726-7.691-2.48-11.028-.78-3.497-.728-3.215-.639-2.846c-.377-2.1-.377-2.1-1.576-3.132l-11 54h-13c-4.462-15.209-8.532-30.502-12.434-45.863l-2.882-11.26-1.832-7.193-.871-3.383-.791-3.13-.699-2.742C5002 904 5002 904 5002 900zm-274.129.051c2.255 1.006 3.518 2.1 5.129 3.949l1-4h13l.104 29.054.047 13.495.039 13.052.022 4.95c.18 28.43.18 28.43-6.211 36.449-10.773 9.924-10.773 9.924-16.441 10.117-18.048-.827-18.048-.827-24.719-7.172-2.942-3.474-4.689-5.893-5.34-10.445.5-2.5.5-2.5 1.5-3.5 1.643-.099 3.291-.13 4.938-.125l2.715-.008C4706 986 4706 986 4708 987l.813 2.375c1.54 3.404 2.791 4.111 6.188 5.625 3.604-.067 3.604-.067 7.313-.812l3.801-.645L4729 993c2.87-6.252 4.511-11.096 4-18l-1.68 1.059-2.195 1.379-2.18 1.371c-4.361 2.671-7.899 2.727-12.945 2.191-6.023-1.499-10.944-3.811-14.754-8.809-5.908-10.39-6.445-21.68-6.496-33.316l-.062-3.516c-.059-13.201 2.097-23.095 11.438-32.672 6.998-6.932 14.799-5.351 23.746-2.637zM4711 911c-4.993 8.942-5.181 18.78-5.187 28.75l-.037 3.133c-.18 12.762-.18 12.762 5.537 23.68l1.738 1.941c2.981 2.288 5.571 2.598 9.266 2.324 2.586-.666 4.462-1.325 6.684-2.828 5.133-8.867 5.182-18.814 5.188-28.75l.037-3.461c.017-9.954-.21-17.851-7.369-25.246-4.747-3.947-11.106-3.199-15.855.457zm-139.77-182.117c14.542.89 14.542.89 19.77 6.117l2-4 5.438-.062 3.059-.035C4604 731 4604 731 4605 732a160.43 160.43 0 0 1 .145 7.207l.01 2.287.013 7.534.01 5.237.007 11.014.031 14.051.013 10.838.013 5.175c.103 25.145.103 25.145-6.242 33.657-6.136 5.636-11.235 9.379-19.687 9.313l-2.187-.015c-8.513-.188-13.929-2.242-20.125-8.298-3.101-3.658-4.063-5.03-3.75-9.875L4554 817l12 1 1 6c4.745 1.913 8.303 2.104 13.375 1.625l3.773-.336L4587 825c3.289-6.333 4.702-11.874 5-19l-2.125 1.813c-5.29 4.025-9.158 5.859-15.875 5.188-6.842-1.126-11.249-3.17-15.535-8.707-9.547-14.945-9.527-36.23-6.215-53.168 2.377-9.279 6.412-14.105 13.75-20.125 2-2 2-2 5.23-2.117zM4569 742c-4.549 9.168-5.165 18.779-5.125 28.813l-.012 2.869c-.326 11.696-.326 11.696 3.887 22.256l1.484 2.215c2.16 2.261 3.752 3.03 6.766 3.848 3.881.005 7.375-.604 11-2 2.282-3.073 2.282-3.073 3-7l1.016-3.738c1.018-4.082 1.461-8.128 1.672-12.324l.114-2.211c.51-11.892.616-22.181-6.552-32.164-5.044-3.503-12.019-3.48-17.25-.562zm707.625 155.188L5281 898l2.383.348c4.865.827 7.988 2.14 11.617 5.652l2-4h12l.155 32.339.071 15.018.058 14.511.033 5.518c.203 23.95.203 23.95-6.68 31.165-10.018 8.87-10.018 8.87-16.012 9.012-1.547-.14-3.089-.332-4.625-.562l-3.02-.332c-8.745-1.154-14.208-3.967-19.852-10.789-1.791-2.981-1.599-5.521-1.129-8.879 1.666-1.666 3.66-1.171 5.938-1.187l2.715-.043C5269 986 5269 986 5271 988l.25 1.938c.616 2.346.616 2.346 3.336 3.711 3.993 1.581 6.543 1.48 10.789 1.039l3.773-.363L5292 994c2.617-6.443 4.287-11.967 4-19l-1.68 1.059-2.195 1.379-2.18 1.371c-5.065 3.102-10.361 2.83-16.137 1.801-5.891-1.798-9.484-5.533-12.809-10.609-7.25-13.912-7.385-32.272-4.687-47.375l.356-2.02c1.759-8.936 9.37-23.25 19.956-23.418zM5274 911c-7.221 9.635-6.311 26.694-5.875 38.125l.065 2.33c.39 6.715 2.451 12.186 7.247 16.983 4.296 2.62 7.238 2.883 12.125 1.875 3.221-1.152 4.213-1.902 5.871-4.941 3.421-10.013 3.807-19.857 3.604-30.337l-.053-5.647c-.248-7.525-1.649-12.879-6.984-18.387-5.713-3.626-10.171-3.736-16 0zm-707-11l2 1v2l3 1 2-4h11l.155 32.782.071 15.224.058 14.706.033 5.596.023 7.869.033 2.31c-.041 7.202-1.629 14.664-6.764 20.026L4577 1000l-1.984 1.957c-5.108 4.345-9.353 5.673-16.016 5.23-8.95-.902-16.12-2.492-22.125-9.5-2.918-4.128-3.614-6.722-2.875-11.687l5.375-.125 3.023-.07C4545 986 4545 986 4547 988l.25 1.938c.619 2.346.619 2.346 3.336 3.742 4.118 1.593 6.475 1.281 10.789.508l3.773-.645L4568 993c2.87-6.252 4.511-11.096 4-18l-1.68 1.059-2.195 1.379-2.18 1.371c-5.037 3.085-9.852 2.919-15.551 1.578-7.344-2.522-10.924-6.456-14.352-13.297-3.855-9.248-4.369-19.266-4.293-29.152l-.023-3.064c.032-12.58 1.909-22.663 10.898-31.811 7.292-7.062 15.058-5.891 24.375-3.062zm-11.012 8.059c-2.369.285-3.927.73-5.988 1.941-7.378 9.613-6.288 27.176-5.875 38.625l.065 2.474c.377 6.884 2.425 12.252 7.06 17.401 4.713 2.571 8.837 1.911 13.859.832 3.079-1.073 3.079-1.073 4.316-3.906l.887-3.113.926-3.074c2.901-12.331 5.22-33.41-1.719-44.633-2.561-3.228-4.584-5.247-8.457-6.73l-5.074.184zM4798 873h13l1 48 14-19 8.5-11.187 3.906-5.105 1.853-2.386 3.282-4.692c3.614-5.448 3.614-5.448 8.107-6.41l3.727.281 3.773.219 2.852.28c-1.462 4.395-3.859 7.643-6.75 11.188l-2.957 3.695-1.6 1.993-9.13 11.687-3.496 4.504-1.597 2.079c-1.249 1.577-2.587 3.083-3.942 4.57-1.801 2.162-1.801 2.162-1.26 4.67.716 2.556 1.584 4.469 2.928 6.748l1.398 2.403 1.532 2.59 3.266 5.629 1.764 3.04 8.747 15.52 2.845 5.095c3.952 7.106 7.663 14.296 11.253 21.591h-16l-2.824-5.316L4821 929c-6.22 5.407-9.437 10.022-10.016 18.197-.139 4.501-.117 8.988-.046 13.491l-.021 5.631L4811 980h-13V873zm-924 360h15c2.295 5.924 4.256 11.887 6.074 17.973l.864 2.876 2.749 9.214.943 3.162C3914 1314.51 3914 1314.51 3914 1321h2l.305-3.191c.766-6.034 2.303-11.864 3.82-17.746l.493-1.924c5.656-21.935 12.636-43.52 19.382-65.138h15c-.69 4.832-1.375 8.666-2.807 13.209l-1.125 3.598-1.224 3.857-1.276 4.066-3.383 10.728-3.333 10.585-3.946 12.534-6.535 20.906-.636 2.055-2.982 9.672-1.057 3.423-.924 3.006C3925 1333 3925 1333 3924 1335h-19l-5.877-18.364-3.845-12.014-18.215-57.31-.98-3.105-.859-2.781-.726-2.331C3874 1237 3874 1237 3874 1233zm1356-360h12c.99 5.71 1.104 11.188 1.022 16.974l-.029 2.959-.114 9.626-.072 6.696-.202 17.582-.201 17.958L5242 980h-11l-1-6-1.625 1.813c-5.151 4.744-9.718 5.754-16.562 5.531-6.05-.739-10.888-2.999-15.125-7.406-9.355-12.232-10.107-31.235-8.465-45.93 1.09-7.894 2.581-14.85 7.777-21.008l1.938-2.477c2.958-3.413 5.31-6.117 9.809-7.16 2.85-.051 5.444.172 8.254.637l2.336.375c3.938.82 6.568 2.141 9.664 4.625l.076-1.785.362-8.153.119-2.807c.264-5.791.741-11.501 1.443-17.256zm-22 38c-2.3 2.387-3.153 4.831-4 8l-.52 1.869c-1.605 6.326-1.829 12.438-1.793 18.943l.017 3.215c.222 14.563.222 14.563 7.217 26.938 4.023 2.004 7.884 1.152 12.137.223 3.086-1.246 4.096-1.86 5.629-4.75.781-2.182.781-2.182 1.313-4.437l.625-1.965c2.853-10.321 2.793-21.582 1.688-32.16l-.198-2.115c-.603-4.847-2.185-7.9-5.114-11.76l-1.562-2.375L5222 909c-4.845 0-9.416.341-14 2zm-989-208l2.742.098c4.312.369 6.552 1.234 9.734 4.246 6.82 8.441 11.552 18.605 10.523 29.656l-5.937.063-3.34.035C4230 737 4230 737 4229 736l-.812-5.75c-1.055-6.406-1.055-6.406-5.187-11.25-4.891-3.438-8.719-4.471-14.629-3.555L4206 716l-3.602.629c-3.634 1.056-3.634 1.056-5.105 4.391-1.161 3.983-2.312 7.95-3.293 11.98l-.75 2.969c-3.144 15.892-5.036 41.979 3.738 56.27L4199 795l1.938 3.438c3.693 3.09 4.82 2.891 9.5 2.625 6.767-.804 6.767-.804 12.563-4.062 3.799-6.171 6.019-11.962 6.563-19.187l.254-3.293.184-2.52c4.372-.771 7.689-1.005 12 0 .596 12.641-1.388 25.07-10.125 34.75-7.462 6.88-15.479 7.875-25.383 7.566-7.538-.683-13.581-3.46-18.492-9.316-9.072-14.566-10.234-29.799-10.25-46.5l-.003-2.167c.015-15.945.453-35.063 12.253-47.333 9.128-7.381 17.809-7.308 29-6zm431.941 1.902L4661 705c3.196 9.999 5.924 20.078 8.547 30.238l1.261 4.854 3.275 12.64 3.359 12.953L4684 791l11.148-39.398.525-1.976 3.166-11.971 3.788-14.324 2-7.572.902-3.405.791-2.997C4707 707 4707 707 4708 705h13c-1.703 9.466-4.273 18.653-6.832 27.914l-1.435 5.223-3.008 10.918-3.812 13.857-2.968 10.785-1.403 5.102-7.306 25.309-.636 2.069c-1.477 4.701-1.477 4.701-2.599 5.824a133.02 133.02 0 0 1-6.437.125l-3.559.008C4678 812 4678 812 4676 811c-.873-2.579-1.626-5.119-2.328-7.746l-.684-2.478-2.238-8.214-1.578-5.742-2.506-9.122-6.467-23.261-.953-3.39-3.721-13.223L4647 706c1-1 1-1 3.941-1.098zM3569 1189h16v132h13v14l-9.687.188-2.764.076c-5.012.055-8.499.053-12.549-3.264-3.82-4.229-4.125-8.051-4.12-13.606l-.004-3.459.011-3.782v-3.992l.013-10.827.008-11.319.021-21.43.022-24.399.05-50.186zm1177.375-460.25l3.836-.016c4.688.329 8.969.8 12.715 3.816 7.198 9.145 7.216 18.003 7.391 29.289l.063 3.4.183 10.697.131 7.275L4771 801l5 1 .063 4.438.035 2.496C4776 811 4776 811 4775 812c-9.668.975-9.668.975-13.562-1.875L4760 808l-2-2-1.574.988-4.355 2.695c-2.171 1.325-2.171 1.325-4.383 3.191-5.54 2.319-11.758.883-17.187-1.25-4.906-3.189-7.727-7.053-9.5-12.625-.876-7.554-.578-15.16 3-22 2.25-2.75 2.25-2.75 5-5l2.813-2.437c4.371-3.089 9.461-4.657 14.501-6.332 4.106-1.415 7.133-2.638 9.686-6.231.556-2.674.556-2.674.375-5.5l-.039-2.844c-.34-2.691-.879-4.383-2.336-6.656-2.833-1.416-5.475-1.346-8.625-1.562l-3.602-.254L4739 740l-.937 2.438C4737 745 4737 745 4736 746l-1 7h-12c.524-13.13.524-13.13 3.961-17.484 6.198-4.818 11.539-6.798 19.414-6.766zm2.469 44.828a136.01 136.01 0 0 1-5.625 2.656c-3.839 1.739-6.647 3.096-9.406 6.328-1.247 5.275-1.037 10.162.188 15.438 1.913 2.932 1.913 2.932 5 4 4.733.516 8.741.177 13-2 3.734-4.721 5.138-9.64 5.098-15.547l-.01-2.559-.025-2.645-.014-2.691L4757 770c-2.703 0-5.808 2.377-8.156 3.578zM4391 729l3.938.063c5.516 1.688 7.936 5.886 10.615 10.765 2.294 5.468 1.927 11.269 1.959 17.106l.054 3.737.121 11.767.104 7.998L4408 800l6 2v9c-5.388 1.979-8.512 2.382-14 0-2.437-2.625-2.437-2.625-4-5l-2 1.75c-6.855 5.141-11.509 6.991-20.234 5.84-5.82-1.241-8.769-4.186-12.203-8.84-3.965-6.996-2.77-14.152-1.562-21.75l.371-2.523c1.421-5.574 5.651-8.468 10.238-11.59 4.471-2.488 9.063-4.271 13.907-5.897 5.267-1.654 5.267-1.654 9.484-4.99.637-3.318.637-3.318.5-7l.031-3.75c-.239-3.251-.239-3.251-2.187-5.156-4.577-2.136-9.429-1.816-14.344-1.094-3.547 2.722-3.891 4.445-4.75 8.813L4373 753c-3.674 1.176-7.169 1.074-11 1-1.786-5.358-.72-10.705 1-16 7.437-9.017 17.124-9.381 28-9zm-4.156 44.578a136.01 136.01 0 0 1-5.625 2.656c-3.839 1.739-6.647 3.096-9.406 6.328-1.222 5.168-1.127 10.282.188 15.438 1.922 2.53 3.048 3.799 6.184 4.461 6.246-.075 6.246-.075 11.816-2.461 4.875-6.484 5.671-12.131 5.313-20.062l-.068-2.912L4395 770c-2.703 0-5.808 2.377-8.156 3.578zm585.086 124.961c7.679 2.124 12.941 5.275 16.973 12.25 7.749 15.609 7.501 37.846 2.098 54.211-1.692 3.819-3.354 6.74-6.375 9.625l-1.711 1.664L4981 978l-2.344 2.184c-5.419 3.705-12.529 2.367-18.738 1.273-7.637-1.891-13.378-4.746-17.82-11.402-7.823-14.644-7.066-36.483-3.082-52.195 2.018-5.863 5.173-10.877 9.984-14.859h2v-2c5.239-5.29 14.174-3.704 20.93-2.461zm-17.367 14.711c-7.377 12.983-6.269 34.791-2.562 48.75 2.13 3.939 4.859 6.859 8 10 4.84.261 9.073-.562 13.438-2.625 4.971-4.607 6.106-10.653 6.813-17.187l.245-2.205c1.223-12.72 1.777-28.531-6.37-39.107-1.903-1.973-2.767-2.778-5.437-3.5-7.668 1.669-7.668 1.669-14.125 5.875zM4501 898h3.938c4.726 1.543 7.411 4.88 10.063 9 2.701 5.962 2.333 12.13 2.379 18.547l.051 3.659.132 11.544.143 11.587.08 7.205.041 3.278.029 2.893c-.003 2.318-.003 2.318 1.145 4.288 2.527.656 2.527.656 5 1v8c-3.737 1.985-6.865 2.319-11.062 1.691-3.473-1.239-4.905-3.706-6.937-6.691l-1.574.988-4.34 2.699c-1.58.994-3.124 2.047-4.648 3.125-4.781 2.329-9.214 1.405-14.125-.062-5.934-2.182-8.885-5.71-11.555-11.344-2.254-7.157-1.276-15.45 1.242-22.406 5.772-8.41 12.907-11.658 22.226-14.682 4.634-1.581 7.79-3.241 10.774-7.318.602-3.576.602-3.576.313-7.312l-.137-3.801L4504 911c-3.308-1.47-5.939-2.275-9.562-2.25l-2.254-.016c-2.462.299-4.072.982-6.184 2.266-2.204 3.306-2.976 7.197-4 11h-10c-1.688-5.065-.562-9.974 1-15 1.957-2.722 4.126-4.315 7-6l3.063-1.875c5.633-2.172 12.025-1.376 17.938-1.125zm-4.156 43.578a136.01 136.01 0 0 1-5.625 2.656c-3.994 1.809-6.668 3.036-9.344 6.578-1.648 6.003-1.539 11.46 1.125 17.188 2.21 2.096 3.554 2.933 6.586 3.391 5.759-.252 5.759-.252 10.43-3.332 3.46-5.098 5.124-9.442 5.082-15.605l-.01-2.559-.025-2.645-.014-2.691L4505 938c-2.703 0-5.808 2.377-8.156 3.578zm404.543-213.144L4904 729l3.082.535c6.269 1.291 10.632 2.643 14.918 7.465 5.232 8.128 6.314 16.544 6.125 26l-.027 2.637L4928 772l-11.896.427-6.005.217c-6.705.236-13.391.414-20.1.355l.813 8.563.213 2.424c.536 5.248 1.69 9.26 3.975 14.014l1 3h2v2l13-1c2.08-5.956 3.757-11.816 5-18 3.734-.879 7.168-1.089 11-1 1.074 4.104.889 7.384.25 11.563l-.484 3.379c-.775 3.096-1.559 4.779-3.766 7.059h-2v2c-4.653 4.295-9.761 6.67-16.062 7.313-14.278-1.133-14.278-1.133-18.711-4.766-1.451-2.125-2.325-4.131-3.227-6.547l-1.359-3.543c-2.449-6.7-4.468-13.281-4.641-20.457l-.117-2.871c-.334-15.165.434-30.705 11.242-42.254 4.126-4.065 7.352-6.186 13.262-5.441zM4895 742c-4.21 6.372-4.298 12.278-5 20h26c-.081-11.629-.081-11.629-6-21-4.329-2.165-11.047-1.745-15 1zm258 156l3.086.527c7.034 1.468 11.96 3.061 16.086 9.223 5.605 10.072 5.077 21.093 4.828 32.25-8.035 1.12-15.959 1.114-24.062 1.063l-4.068-.014L5139 941l.813 9.625.213 2.738c.476 5.212 1.281 9.042 3.975 13.637l1 3h2v2c4.18-.204 8.03-.634 12-2 2.401-2.703 3.174-5.523 4-9l.664-2.594c.504-2.122.928-4.263 1.336-6.406h12l-.738 8.113c-.2 2.207-.313 4.422-.387 6.637-1.531 5.685-5.439 8.657-10.246 11.801-5.727 3.172-10.165 4.281-16.629 3.449l-3.207-.195c-5.252-.66-8.617-1.385-12.074-5.559-10.285-19.154-10.126-43.252-3.98-63.703 4.101-9.855 12.617-16.537 23.262-14.543zm-9 12c-4.203 6.738-4.269 12.956-5 21h26c-.066-11.273-.066-11.273-5.527-20.645-2.145-1.975-3.278-2.342-6.223-2.543-4.85.27-4.85.27-9.25 2.188zm209.625-11.312c6.65 1.715 11.645 4.533 15.25 10.5 4.812 9.884 4.365 20.088 4.125 30.813-8.035 1.12-15.959 1.114-24.062 1.063l-4.068-.014-9.87-.05c.443 10.155 1.212 18.818 5.438 28.188 4.399 3.112 9.452 1.624 14.563.813 2.866-5.76 4.428-10.595 5-17 1-1 1-1 3.723-1.098l3.34.035 3.348.027 2.59.035c-1.18 18.092-1.18 18.092-6.219 22.711L5365 976l-2.031 1.477c-5.922 3.955-10.832 5.041-17.969 4.523l-3.164-.18c-5.297-.694-8.675-1.386-12.121-5.645A70.06 70.06 0 0 1 5325 965l-1.082-3.297c-4.248-16.216-4.313-38.773 4.082-53.703 2.12-2.619 4.405-4.855 7-7l1.926-1.672c4.717-3.02 11.412-1.594 16.699-.641zM5340 910c-4.248 6.769-5 13.114-5 21h25c.288-12.448.288-12.448-6-22-4.452-2.226-9.775-1.296-14 1zm-432.75-11.5l2.077.233c4.65.693 7.491 1.8 10.673 5.267 4.954 7.613 4.52 15.808 4.391 24.535l-.017 4.468-.099 11.674-.079 11.946L4924 980l-5.937.063-3.34.035C4912 980 4912 980 4911 979c-.097-1.968-.125-3.939-.126-5.909l-.012-3.834v-2.063l-.045-8.567-.067-15.962-.062-11.091-.004-4.224-.04-5.924-.011-3.403c-.834-3.986-2.506-5.5-5.633-8.024-2.91-.684-2.91-.684-5.937-.312l-3.027.137c-4.646 1.8-6.85 4.744-9.035 9.176-.849 4.63-.815 9.174-.77 13.871l-.052 6.04.004 8.394-.045 12.742-.026 9.897-.002 3.562.008 3.15C4886 979 4886 979 4885 980h-12v-80h12l1 6 1.438-1.75c6.253-5.49 11.533-6.723 19.813-5.75zM4330 730c5.95 1.789 9.498 4.798 13 10 4.422 9.007 5.356 20.077 5 30l-1 2c-12.295 2.198-25.563 1.1-38 1l1.313 10.188.357 2.908c.667 4.943 1.232 8.828 4.33 12.904l1.25 1.813c2.833 1.922 5.419 1.417 8.75 1.188h2.688c3.275-1.416 4.037-3.405 5.465-6.59 1.432-4.071 2.139-8.157 2.848-12.41h11l-.375 7.188-.094 2.041c-.424 7.235-2.312 11.216-7.477 16.123-4.882 3.917-10.442 6.379-16.812 5.957L4320 814l-2.992-.402c-7.791-1.457-7.791-1.457-10.746-4.227-1.348-2.067-2.317-4.092-3.262-6.371l-1.105-2.289c-7.391-16.383-6.93-38.946-1.457-55.898 6.332-13.814 15.125-18.147 29.563-14.812zm-15 11c-4.619 7.065-4.615 11.995-6 21h27c-.465-12.561-.465-12.561-6.75-20.875-4.285-2.142-9.79-1.753-14.25-.125zm501.723-10.098l3.34.035 3.348.027 2.59.035.018 2.434.218 22.732.111 11.686.117 11.282.034 4.3.07 6.032.034 3.465c.448 3.445 1.234 5.361 3.399 8.069 2.786.381 4.934.48 7.688.313l2.127-.068L4845 801c4.634-8.554 5.451-15.589 5.477-25.215l.047-3.792.087-9.907.136-14.029.064-7.459.031-3.38.02-2.989C4851 732 4851 732 4852 731h11v81h-10l-2-6-1.5 1.75c-5.185 4.666-10.252 6.871-17.266 6.508-5.964-.688-10.954-1.74-15.234-6.258-4.976-7.466-4.534-14.969-4.426-23.621l.01-4.532.059-9.448.067-12.133.051-11.575.01-2.237.051-6.226.03-3.581c.2-3.605.251-3.616 3.87-3.746zM4272 898c6.573 1.248 11.402 3.074 16 8 6.894 10.227 6.263 22.201 6 34-12.683.741-25.296 1.138-38 1 .466 14.739.466 14.739 6 28.188 4.022 2.43 6.876 2.37 11.469 1.703 2.89-1.017 3.664-1.663 5.094-4.328 1.751-4.707 2.614-9.622 3.438-14.562h12l-.375 6.688-.211 3.762c-.834 7.151-3.616 10.213-8.992 14.742-5.233 3.908-9.333 5.093-15.859 4.621l-2.828-.414c-2.673-.464-2.673-.464-5.156-.359-2.848-.128-4.188-.434-6.578-2.039-8.658-11.603-10.35-24.698-10.312-38.75l-.049-3.594c-.006-10.097.482-21.691 7.361-29.656l1.836-2.352c5.879-6.855 10.338-8.11 19.164-6.648zm-10 11c-5.262 5.616-5.173 14.835-6 22h27c-.383-12.67-.383-12.67-7-21.875-4.744-2.669-9.161-2.564-14-.125zm134.738-10.504c5.811 1.42 10.532 3.732 14.262 8.504 3.034 5.856 5.142 11.924 5.098 18.547l-.01 2.559-.025 2.645-.014 2.691L4416 940c-12.658 1.248-25.295 1.102-38 1l.813 8.563.213 2.424c.535 5.245 1.656 9.275 3.975 14.014l1.438 3c3.289 2.567 4.727 2.144 8.813 1.813L4399 970c2.893-5.941 4.763-11.505 6-18h11l-.375 6.125-.211 3.445c-.915 7.58-3.504 11.789-9.414 16.43-5.494 3.357-10.558 4.798-17 4l-3.145-.191c-5.285-.67-8.681-1.375-12.141-5.598-9.754-18.349-10.043-41.048-5.043-60.875 4.674-14.244 13.901-19.406 28.066-16.84zM4384 910c-4.887 6.697-5.235 12.587-6 21h26c.523-12.821.523-12.821-5.812-21.937-4.643-2.255-9.806-1.618-14.187.938zm286.5-9.75c4.432 3.103 6.831 6.655 8.5 11.75.241 3.183.241 3.183.227 6.81l.001 2.012-.033 6.541-.009 4.552-.049 11.95-.04 12.207L4679 980l-5.437.063-3.059.035C4668 980 4668 980 4667 979c-.113-1.906-.157-3.816-.174-5.726l-.041-3.712-.015-1.997-.065-6.179-.182-17.574-.12-10.741-.037-4.09-.063-5.737-.031-3.295c-.283-3.069-.846-5.222-2.272-7.948-4.34-2.893-7.81-2.205-12.883-1.742-3.328.792-4.393 1.333-6.367 4.055-2.458 4.358-2.88 8.515-2.955 13.466l-.06 3.518-.051 3.782-.063 3.884-.153 10.199-.161 10.417L4641 980h-12c-.784-4.844-1.126-9.484-1.129-14.388l-.005-2.126.002-6.884-.003-4.806.005-10.031-.004-12.883v-9.903l-.002-4.754.007-6.614.002-3.805C4628 901 4628 901 4629 900c1.853-.072 3.708-.084 5.563-.062l3.066.027L4640 900l1 7 1.938-2.25c7.894-7.718 17.472-8.104 27.563-4.5zm-142-168.875c4.748 3.062 6.768 7.355 8.5 12.625.651 5.296.586 10.53.488 15.852l-.021 4.531-.124 11.826-.099 12.108L4537 812h-12l-.06-5.704-.227-18.68-.134-11.323-.136-10.932-.045-4.166-.078-5.845-.04-3.358c-.287-3.087-.842-5.251-2.278-7.993-4.341-2.894-7.812-2.143-12.883-1.68-3.153.688-4.33 1.132-6.367 3.555-2.358 4.211-2.882 7.112-2.939 11.866l-.051 3.569-.041 3.854-.085 5.971-.16 12.621-.137 10.403-.097 7.809-.051 3.55-.038 3.142C4499 811 4499 811 4498 812c-1.664.098-3.333.13-5 .125l-2.75.008C4488 812 4488 812 4487 811c-.1-2.459-.136-4.89-.129-7.35l-.005-2.331.002-7.664-.003-5.302.005-11.127-.004-14.296v-10.953l-.002-5.273.007-7.356-.006-2.223c.021-5.012.021-5.012 1.136-6.127a73.85 73.85 0 0 1 4.563-.062l2.504.027L4497 731l2 7 2.063-2.312c7.405-6.775 18.048-8.072 27.438-4.312zm-2008.121 501.527l4.184.035 7.438.063v19h2l.125-2c1.632-5.596 5.31-9.707 9.75-13.375 7.069-3.676 13.315-3.842 21.125-3.625v16l-6.875.313c-7.697.468-14.848 1.162-21.125 6-3.715 4.992-4.254 9.775-4.319 15.886l-.03 2.101-.065 6.817-.059 4.75-.128 12.458-.141 12.73L2532 1335h-16l-.052-39.454-.024-18.318-.019-17.662-.011-6.755-.008-9.426-.011-2.851c.012-7.502.012-7.502 4.503-7.632zM1371 1233h16l1 18 4-8c2.5-2.812 2.5-2.812 5-5l1.813-1.687c6.3-3.78 13.087-3.51 20.188-3.312v16l-4.094.262-5.406.426-2.687.162c-6.107.516-11.311 1.758-15.812 6.15-2.751 4.605-3.386 8.048-3.432 13.382l-.031 2.16-.048 7.012-.054 4.884-.103 12.813-.121 13.092L1387 1335h-16v-102zm2809-360h13v95h42v12l-23.016.055-7.837.021-11.237.022-3.564.016h-3.276l-2.9.007C4181 980 4181 980 4180 979l-.12-4.144-.004-2.707.011-2.993v-3.133l.016-10.308.004-7.125.025-18.796.02-19.163L4180 873zm122 27h13c1.439 3.597 2.517 6.721 3.42 10.433l.788 3.214.83 3.435.866 3.543 2.72 11.187 1.852 7.592L4330 958c3.832-13.176 7.459-26.382 10.813-39.687l1.774-7.005 1.082-4.284c1.219-4.799 1.219-4.799 2.332-7.024h12a95.69 95.69 0 0 1-2.718 13.635l-.518 1.885-1.694 6.101-1.185 4.284-2.487 8.954-3.164 11.421-2.45 8.841-1.165 4.209c-1.935 7.004-3.906 13.921-6.62 20.67h-12c-3.18-7.804-5.26-15.902-7.449-24.023l-1.265-4.66-2.63-9.718-3.38-12.469-2.602-9.599-1.248-4.6-1.73-6.405-.995-3.682C4302 902 4302 902 4302 900zm-333 333h15v102h-16l-.052-39.454-.024-18.318-.019-17.662-.011-6.755-.008-9.426-.011-2.851c.01-6.42.01-6.42 1.124-7.534zm-1391 0h15c1.954 1.954 1.12 4.934 1.124 7.534l-.011 2.851v2.986l-.016 9.821-.004 6.789-.025 17.908-.02 18.258L2594 1335h-16v-102zm-102 0h15c1.954 1.954 1.12 4.934 1.124 7.534l-.011 2.851v2.986l-.016 9.821-.004 6.789-.025 17.908-.02 18.258L2492 1335h-16v-102zm1953.504-523.098L4438 710v21l5.938-.062L4450 731c1 1 1 1 1.098 3.285L4451 742h-13v58l12 2c1.283 3.85 1.066 6.947 1 11l-7.187.125-2.041.051c-5.783.056-8.956-.657-13.386-4.363-4.12-5.113-2.995-11.966-2.874-18.18l.021-4.212.124-11.038.099-11.282L4426 742h-11v-10c1-1 1-1 3.285-1.098l2.777.035 2.785.027L4426 731l-.016-1.82-.047-8.117-.025-2.865-.01-2.725-.016-2.523c.174-2.984.618-2.93 3.617-3.047zM5101 873h12v107h-12V873zm-315-168h12l.052 41.41.024 19.226.019 18.537.011 7.09.008 9.893.011 2.993-.004 2.707.003 2.366C4798 811 4798 811 4797 812l-5 .125-2.75.008C4787 812 4787 812 4786 811l-.12-4.144-.004-2.707.011-2.993v-3.133l.016-10.308.004-7.125.025-18.796.02-19.163L4786 705zm-322 193v13l-3.211.078-4.164.172-2.117.043c-2.285.067-2.285.067-5.508.707-1.177 1.758-1.177 1.758-2 4l-1.049 2.352c-2.877 7.225-3.552 13.584-3.56 21.316l-.05 3.518-.091 11.002-.09 7.51L4442 980h-12v-80h11l1 9 .938-2.125c5.565-7.757 11.84-9.654 21.063-8.875zm-173-169c1 1 1 1 1.098 3.941l-.035 3.621-.027 3.629L4292 743l-2.52.184-3.293.254-3.27.246c-2.978.219-2.978.219-5.918 1.316-1.427 1.913-1.427 1.913-2.625 4.25l-1.289 2.328c-1.885 4.203-2.215 8.287-2.291 12.855l-.06 3.214-.051 3.435-.063 3.543-.183 11.187-.131 7.592L4270 812h-11v-81h10c1.968 1.968 1.662 5.348 2 8l1.5-2.187c5.403-6.078 10.36-8.669 18.5-7.812zm310 171h12v80h-12c-1.694-1.694-1.126-3.803-1.136-6.063l.006-2.195-.005-2.301.002-7.566-.003-5.235.005-10.986-.004-14.114v-10.814l-.002-5.206.007-7.263-.006-2.195c.021-4.949.021-4.949 1.136-6.063zm-142-169h12l.052 31.24.024 14.505.019 13.986.011 5.348.008 7.464.011 2.256c-.01 5.087-.01 5.087-1.124 6.201h-11v-81zm-1162 583c3.719 1.366 4.614 2.192 6.313 5.75 2.484 11.744-2.022 22.469-8.312 32.25l-1.711 2.691c-2.915 3.93-4.738 6.056-9.691 6.863-3.25.007-6.374-.157-9.598-.555 2.072-3.506 4.257-6.914 6.5-10.312 2.863-4.467 4.883-8.645 6.5-13.687l-2.375-.812C3282 1335 3282 1335 3280 1332c-.336-2.996-.336-2.996-.375-6.437l-.086-3.434c.551-3.737 1.537-4.83 4.461-7.129 3.928-1.964 8.708-1.335 13-1zm-1849 0c3.002 1.801 4.452 2.903 6 6 .409 4.886.598 9.457-1.187 14.063-3.091 3.304-5.749 3.839-10.187 4.25-4.34-.374-6.811-1.219-10.625-3.312-2.839-4.333-2.526-9.005-2-14 1.24-2.977 2.049-4.408 4.77-6.102 4.246-1.71 8.743-1.457 13.23-.898zm221 0c3.073 1.254 4.408 2.016 6.102 4.832 1.519 3.666 1.365 7.269.898 11.168-1.52 3.248-3.17 6.322-6.687 7.625-5.947.964-10.152.615-15.312-2.625-3.106-4.659-2.619-9.544-2-15 4.154-7.061 9.44-6.612 17-6zm184.051.664c2.05 1.282 2.87 2.155 3.949 4.336a36.49 36.49 0 0 1 0 13c-2.529 3.554-3.912 4.637-8 6-5.395.3-9.48.07-13.75-3.437-2.912-3.64-2.719-8.13-2.25-12.562 1.98-5.346 1.98-5.346 4.773-7.137 4.805-1.863 10.388-1.782 15.277-.199zM4944 796h14l.188 9.5.076 2.688c.082 7.478-1.053 13.946-6.201 19.75l-1.465 1.715c-1.854 1.564-3.206 2.033-5.598 2.348-1-1-1-1-1.25-4.437L4944 824l3-2c1.013-2.41 1.013-2.41 1.688-5.125l.762-2.758.55-2.117-2.437.063C4945 812 4945 812 4944 811a184.94 184.94 0 0 1-.062-7.562l.014-2.154L4944 796z"/><use href="#B"/><use href="#B" x="-102"/><path d="M3983 1191c2.775 2.916 3.431 5.009 3.438 9-.116 3.281-.266 4.719-2 7.563-3.294 1.942-5.607 2.373-9.437 2.438-2.621-.727-4.572-1.689-7-3-1.968-3.936-1.457-8.709-1-13 1.892-2.943 3.097-3.658 6.313-4.875 3.638-.169 6.301.558 9.688 1.875zm620.723-318.098l3.34.035 3.348.027 2.59.035.063 7.438.025 2.143L4613 888c-1 1-1 1-3.469 1.133l-3.031-.008-3.031.008C4601 889 4601 889 4600 888l-.125-7-.008-3.875c.174-4.091.174-4.091 3.855-4.223zM4459 705h12v15h-12v-15z"/></g><defs ><path id="B" d="M2593 1191c2.971 4.457 2.619 8.775 2 14-2.064 3.467-3.45 3.844-7.312 4.938-4.544.077-6.718-.794-10.687-2.937-1.968-3.936-1.457-8.709-1-13 1.875-2.916 3.078-3.642 6.25-4.875 3.75-.17 7.289.377 10.75 1.875z"/></defs></svg>